<svg xmlns="http://www.w3.org/2000/svg" xmlns:xlink="http://www.w3.org/1999/xlink" xmlns:inkscape="http://www.inkscape.org/namespaces/inkscape" version="1.1" width="810" height="1012.5" viewBox="0 0 810 1012.5">
<defs>
<clipPath id="clip_1">
<path transform="matrix(.24,0,0,.24,0,0)" d="M0 0H3375V4218.75H0Z" clip-rule="evenodd"/>
</clipPath>
<clipPath id="clip_2">
<path transform="matrix(.24,0,0,.24,0,0)" d="M0 0H3375V4218.75H0Z" clip-rule="evenodd"/>
</clipPath>
<clipPath id="clip_3">
<path transform="matrix(.24,0,0,.24,0,0)" d="M0 0H3375V4218.75H0Z"/>
</clipPath>
<clipPath id="clip_4">
<path transform="matrix(.24,0,0,.24,0,0)" d="M0 0H3375V4218.75H0Z"/>
</clipPath>
<clipPath id="clip_5">
<path transform="matrix(.24,0,0,.24,0,0)" d="M195.39322 801.2662H3044.7498V3016.3643H195.39322Z"/>
</clipPath>
<clipPath id="clip_6">
<path transform="matrix(.24,0,0,.24,0,0)" d="M1331.3362 2453.667C1266.3578 2608.171 1239.4038 2654.8594 1209.0807 2696.7344 1177.3134 2740.5345 1138.3264 2785.7789 1100.302 2822.3592 1066.1282 2856.0518 1030.5104 2883.9683 992.96737 2910.441 955.9056 2935.9508 913.068 2961.461 877.9315 2978.3072 850.0149 2991.7843 822.09829 3000.9293 800.43887 3007.1866 785.5179 3011.518 774.9288 3012.9625 762.4144 3014.4063 749.9001 3015.85 737.86709 3016.813 726.3153 3015.85 714.7636 3014.8878 703.2119 3011.9996 692.14157 3009.1119 682.03378 3006.2237 673.37 3003.336 662.7809 2998.0416 647.3786 2990.8218 623.7939 2976.8634 610.7982 2967.2369 601.6531 2960.017 595.3959 2954.2413 589.62008 2946.54 583.36288 2938.3575 578.06838 2929.2125 573.73648 2919.586 569.88589 2909.9595 567.4793 2900.8145 565.55398 2888.3004 563.1474 2870.9727 561.7034 2845.9439 563.1474 2824.7657 564.11 2802.625 566.51669 2782.8907 572.2925 2758.3433 580.4749 2726.0948 592.9893 2692.4024 611.27957 2649.0836 640.1588 2582.1798 714.7636 2457.0362 736.9044 2400.7218 747.49349 2372.805 752.3067 2356.44 755.1946 2336.7059 757.6012 2319.8597 759.04519 2303.976 756.1572 2288.5738 753.7506 2274.1343 747.49349 2262.101 739.31106 2247.1802 727.7593 2226.002 717.1702 2203.8614 690.6976 2176.9073 638.2335 2123.4805 483.72938 2037.8053 412.97517 1975.7149 362.4364 1931.9146 324.8933 1888.5957 294.5701 1851.0526 272.91065 1824.0986 256.54573 1797.1447 244.03134 1775.4851 235.36757 1760.083 230.55435 1750.9378 224.29718 1734.5729 216.11472 1712.4321 206.48828 1674.4077 202.63771 1651.3042 200.23111 1635.9021 199.26847 1626.2756 200.23111 1610.8733 201.67508 1589.6952 209.37622 1555.5214 215.63339 1536.2686 220.4466 1522.7915 223.81586 1515.0903 231.03568 1503.5386 241.62474 1486.6924 258.9523 1463.589 276.7612 1447.7053 295.0514 1431.8218 322.48674 1416.4194 341.25825 1408.237 354.25395 1401.9797 362.4364 1399.5733 376.3947 1397.1666 396.61024 1392.8347 426.93348 1389.4656 452.9248 1391.3909 479.87879 1393.316 512.60867 1401.0172 534.74948 1408.7183 550.633 1414.4942 556.8902 1417.8635 575.1804 1428.4526 617.05538 1453.4812 717.1702 1533.3806 775.8914 1570.9236 819.6917 1598.8403 859.16006 1624.3504 893.3338 1637.8273 916.9186 1647.4537 938.09677 1654.6736 957.3496 1654.1921 974.19589 1654.1921 992.0047 1646.9724 1003.07516 1640.7152 1011.25759 1636.3833 1016.5521 1631.0889 1021.3653 1625.313 1026.1785 1620.0184 1028.1038 1616.1679 1031.473 1607.504 1038.6929 1590.1765 1049.282 1551.1895 1053.6138 1523.2728 1057.9457 1496.3189 1056.983 1477.5473 1057.9457 1442.4109 1058.9083 1378.8765 1051.2072 1226.7788 1054.5764 1171.9082 1056.0204 1147.3609 1056.983 1139.6597 1061.315 1119.4442 1067.0908 1090.565 1076.7173 1050.1339 1089.2316 1015.96017 1102.2273 980.3424 1120.0361 939.43008 1138.8078 910.06948 1153.7286 886.96609 1171.5376 866.75057 1186.9398 852.3109 1198.4916 841.7218 1208.5994 834.98336 1220.151 828.2448 1231.2213 821.9877 1242.7731 816.6931 1254.8062 812.8425 1265.8766 809.4733 1277.4282 807.0667 1288.98 806.10409 1300.5317 805.1414 1310.6394 804.6601 1324.1165 808.02938 1342.888 812.3612 1373.2112 828.2448 1390.5387 838.3526 1403.5344 845.5724 1410.273 850.86697 1421.8246 860.9747 1438.6709 875.8956 1460.8118 896.59249 1481.0272 921.62118 1507.9812 955.795 1534.9352 1001.0392 1563.3331 1051.5779 1599.9136 1117.5189 1651.8963 1242.1812 1677.8876 1285.9815 1688.958 1304.2716 1694.7338 1311.9727 1704.3604 1323.0432 1713.5053 1333.1509 1722.6504 1342.296 1732.7582 1349.5159 1741.9033 1356.2544 1751.0485 1361.0675 1761.6376 1365.3994 1772.7079 1370.2127 1785.7035 1374.5446 1797.7366 1375.9885 1809.7697 1376.9512 1819.8773 1376.9512 1833.8357 1373.5819 1856.4579 1368.7687 1881.4866 1357.6983 1917.1043 1338.4454 1991.2278 1298.977 2164.5035 1171.4269 2242.4776 1126.1828 2284.3526 1101.6354 2306.4932 1090.565 2341.6297 1074.6814 2379.1729 1058.3164 2428.7489 1040.0263 2461.4788 1030.3998 2483.6195 1023.6613 2499.5032 1020.7734 2518.7559 1017.88546 2537.5274 1015.4788 2553.4112 1014.03488 2575.0706 1013.5535 2604.4312 1013.0722 2646.7877 1011.62826 2679.9986 1017.4041 2710.8033 1022.6986 2745.4583 1034.7317 2767.5989 1045.3208 2782.52 1052.0593 2792.1466 1059.7604 2802.2542 1067.9429 2812.3619 1076.1253 2821.507 1084.7891 2829.6898 1094.4155 2837.8719 1104.042 2845.0919 1112.2244 2852.3116 1125.2201 2862.4195 1142.5476 2874.9337 1168.5391 2880.2283 1191.1611 2885.523 1213.7832 2886.9669 1240.7372 2885.0413 1259.99 2883.5977 1274.4297 2880.7098 1283.0935 2874.9337 1296.5706 2866.2698 1317.2673 2845.5733 1348.0719 2831.615 1368.2874 2820.0633 1384.6524 2813.806 1390.9094 2797.441 1410.1624 2757.4915 1455.4065 2634.7545 1576.2183 2585.6597 1633.0142 2556.7803 1666.7066 2538.4903 1687.4033 2521.1627 1715.3201 2505.7603 1740.8301 2491.802 1766.8213 2485.545 1791.8501 2479.769 1813.9909 2478.8065 1840.4635 2481.213 1856.8285 2483.1383 1867.8989 2486.5074 1875.1187 2491.3209 1883.3012 2495.6527 1892.4463 2501.9097 1901.1101 2508.6483 1909.2926 2516.3494 1917.9563 2521.1627 1922.2882 2535.1209 1933.84 2578.9212 1968.4951 2747.865 2073.4229 2817.175 2124.9244 2859.5313 2156.692 2890.8175 2181.7205 2916.3275 2206.2679 2934.1363 2223.5953 2946.1693 2237.5538 2959.165 2254.8814 2971.6793 2271.246 2983.231 2289.0552 2993.3389 2306.864 3002.9654 2324.6729 3011.629 2343.4444 3018.3675 2361.7347 3025.106 2378.5809 3030.4005 2395.9085 3033.7698 2412.7547 3037.6204 2428.1568 3040.5084 2443.559 3040.5084 2458.9615 3040.9896 2474.8453 3039.5455 2490.7288 3036.6578 2506.6124 3033.2886 2522.0147 3027.5125 2537.8983 3020.774 2553.3004 3014.0355 2568.7027 3005.853 2584.105 2996.2269 2598.0633 2986.1192 2612.9844 2974.0858 2626.9427 2961.5716 2640.4197 2949.0574 2653.4154 2935.5804 2665.9298 2921.1407 2677.4815 2906.2196 2689.0333 2890.3363 2699.622 2873.9713 2708.767 2858.0875 2717.4312 2843.648 2724.651 2823.4324 2730.4268 2795.0345 2738.6092 2753.1595 2745.3477 2718.5042 2745.3477 2683.849 2745.3477 2648.7127 2738.128 2615.0203 2730.4268 2580.8465 2722.2442 2541.378 2708.767 2514.424 2698.1783 2494.6898 2690.477 2484.1009 2685.6639 2465.329 2675.5562 2438.3753 2661.1163 2403.2388 2638.9757 2369.5465 2615.8724 2329.5968 2588.437 2272.3197 2546.562 2242.959 2521.5333 2225.6314 2507.0938 2218.4114 2500.355 2204.4532 2484.4715 2183.7564 2461.3682 2156.321 2424.3062 2135.1429 2392.539 2113.9647 2362.2159 2092.3052 2325.154 2078.347 2298.2003 2068.239 2278.9473 2062.4632 2267.877 2055.7249 2247.1802 2046.0984 2215.894 2037.9159 2176.9073 2031.1775 2128.775 2021.0697 2053.2076 2021.0697 1922.2882 2012.8872 1837.5757 2006.6301 1771.1533 2003.7421 1708.1002 1991.2278 1660.4495 1982.564 1627.2383 1970.531 1597.8777 1956.5726 1577.6621 1946.9463 1563.2225 1934.9132 1549.2642 1923.8428 1545.4136 1916.6229 1542.0444 1908.9218 1544.4509 1901.702 1545.8949 1894.001 1547.3389 1888.2251 1549.7455 1879.08 1555.5214 1859.827 1567.5545 1822.7654 1598.8403 1798.6992 1624.3504 1775.596 1648.8977 1759.7123 1672.9638 1738.0527 1705.2123 1708.6921 1749.4939 1669.7051 1828.9119 1641.3073 1868.3803 1623.4983 1892.9276 1607.1334 1911.6991 1592.2124 1925.1762 1583.0673 1933.84 1575.3662 1939.1345 1566.2211 1944.429 1557.0759 1949.7235 1546.9682 1953.5741 1536.8605 1956.462 1527.234 1958.8687 1516.6449 1960.794 1506.5372 1960.3126 1495.9481 1959.8313 1488.7284 1959.35 1474.77 1954.5368 1443.0028 1943.4663 1355.4022 1884.7451 1327.967 1873.1934 1317.8593 1868.8616 1314.9713 1867.8989 1306.3075 1866.455 1295.2372 1864.5297 1280.3162 1862.6044 1266.8391 1865.011 1251.4369 1867.4176 1232.1841 1873.1934 1218.707 1881.8572 1205.7114 1890.521 1194.1597 1902.554 1185.9772 1916.031 1177.3134 1930.4707 1172.9815 1948.2796 1169.1309 1965.6072 1165.7617 1983.8973 1163.3551 2005.5568 1165.2804 2023.8469 1166.7243 2040.2119 1171.5376 2056.0958 1177.7947 2071.0167 1184.5332 2086.419 1195.6036 2102.3023 1204.2673 2113.3729 1210.5245 2121.5552 1214.3751 2126.3687 1222.5576 2132.6256 1234.5906 2141.2894 1252.3995 2149.9532 1271.6524 2156.692 1298.1251 2165.3555 1331.3362 2172.094 1367.4353 2174.982 1413.1609 2179.314 1479.1018 2170.1688 1524.8274 2172.094 1560.4452 2173.0567 1587.8805 2174.982 1618.6852 2180.2764 1649.4896 2186.0523 1685.5888 2196.6414 1710.1362 2204.8238 1727.4636 2211.081 1739.0154 2215.894 1752.9736 2222.6329 1767.4135 2229.8526 1779.4464 2236.1097 1794.3674 2247.1802 1816.0269 2262.101 1845.3875 2286.6485 1867.5282 2308.789 1889.669 2330.4488 1920.4735 2363.1788 1927.6934 2377.6182 1931.0626 2383.394 1931.544 2387.2447 1931.0626 2390.6138 1930.5813 2393.983 1928.656 2396.871 1926.2494 2398.315 1922.3988 2400.7218 1912.291 2401.203 1908.4406 2398.7965 1905.0713 2396.871 1902.1834 2390.6138 1902.6647 2386.7633 1903.1459 2381.9503 1909.4032 2374.7303 1913.735 2373.2864 1917.5857 2371.8424 1923.8428 2373.7677 1926.7308 2376.6556 1929.6187 2379.062 1931.544 2385.3194 1931.544 2389.17 1931.0626 2392.0579 1929.6187 2395.427 1927.212 2397.3524 1923.8428 2399.7589 1917.1043 2402.1656 1909.8844 2399.7589 1889.669 2392.539 1845.3875 2327.0797 1814.5829 2301.0882 1789.5541 2280.391 1762.6001 2263.0635 1740.9407 2251.5123 1726.0197 2243.3297 1716.8745 2240.4415 1700.9911 2234.6658 1677.8876 2226.9647 1638.9006 2216.3756 1614.8345 2211.5623 1597.5068 2208.193 1589.8058 2206.749 1570.0717 2205.7867 1531.5659 2203.38 1443.4841 2208.6744 1398.7212 2207.2305 1370.3233 2206.2679 1352.0331 2205.7867 1329.4109 2202.4173 1306.7888 2198.5665 1280.3162 2191.8282 1262.5073 2186.5338 1249.9929 2182.2017 1240.8478 2179.314 1230.7401 2174.019 1220.151 2169.206 1209.5619 2162.4678 1200.8982 2155.2476 1193.1969 2148.5093 1186.9398 2141.7708 1179.72 2132.6256 1169.6122 2119.63 1156.6166 2101.3399 1148.9154 2083.0496 1141.2144 2064.7593 1134.9572 2045.5065 1133.9944 2023.3657 1132.0692 1995.4491 1137.3637 1955.4994 1146.0275 1929.0266 1153.7286 1907.8485 1167.2056 1887.633 1178.276 1874.6375 1186.4585 1865.4923 1194.641 1860.1978 1203.7861 1854.4219 1213.8938 1848.646 1224.9642 1843.8329 1237.4785 1840.4635 1253.3622 1836.1317 1273.0963 1831.3185 1292.3493 1832.7625 1314.9713 1834.6878 1338.0747 1843.8329 1364.5474 1855.8659 1400.1652 1871.2682 1459.3678 1915.5497 1483.4337 1924.6948 1493.0602 1928.5454 1496.4295 1929.508 1504.6119 1929.0266 1517.1264 1929.0266 1537.3418 1923.7322 1548.8934 1918.4376 1558.0386 1914.1057 1562.8518 1909.7739 1571.0343 1902.0726 1584.0299 1890.521 1598.4695 1874.6375 1614.8345 1852.0153 1642.2699 1813.5095 1681.7382 1733.1289 1712.0614 1687.8848 1735.1648 1653.7109 1756.3429 1624.8316 1777.0398 1602.2095 1792.4421 1585.3633 1805.4378 1573.8115 1821.3214 1560.8159 1837.205 1547.8202 1857.4204 1531.9365 1871.8601 1524.2355 1881.4866 1518.9409 1888.7063 1516.5343 1897.37 1515.0903 1905.5525 1513.165 1914.2164 1513.165 1921.9175 1514.1277 1930.5813 1515.5717 1938.2824 1517.4971 1946.4649 1522.7915 1958.4979 1530.974 1972.9375 1546.3762 1983.5266 1561.2971 1995.0784 1578.1434 2004.7047 1601.2468 2010.9619 1618.5745 2016.2565 1631.5701 2018.1818 1637.8273 2022.0324 1654.6736 2029.7334 1691.7354 2037.9159 1767.784 2044.1731 1835.1691 2051.874 1919.8816 2052.3555 2050.801 2062.4632 2123.962 2068.239 2170.1688 2075.459 2205.7867 2084.604 2234.6658 2090.8614 2254.4 2096.1558 2264.5079 2105.3009 2282.7979 2118.7779 2309.2706 2140.4373 2345.3697 2160.6529 2375.2115 2180.8685 2405.0538 2206.8597 2440.19 2226.1126 2462.3309 2239.5897 2477.2515 2246.3282 2483.5089 2262.6929 2497.4674 2291.5723 2522.0147 2348.8497 2563.8897 2387.8365 2590.3624 2420.0853 2612.503 2453.7777 2633.6812 2479.2877 2647.6397 2497.0965 2657.2659 2506.723 2661.5977 2525.4945 2668.8177 2551.4859 2678.9254 2589.51 2692.4024 2621.7589 2700.1036 2653.5262 2707.3233 2684.8118 2714.0618 2716.5789 2714.0618 2748.3463 2714.543 2786.8519 2708.2862 2812.3619 2701.5474 2831.1334 2696.253 2843.648 2689.5145 2858.0875 2681.8133 2873.0084 2673.6309 2885.523 2666.4112 2900.925 2653.8966 2922.1033 2636.088 2953.8707 2603.358 2969.7542 2581.6983 2980.343 2567.2589 2986.1192 2555.2257 2991.8948 2541.7486 2997.6705 2528.2718 3002.9654 2514.7947 3005.853 2501.3179 3008.741 2488.3223 3010.6663 2477.2515 3009.7039 2461.8494 3008.2598 2438.2647 2998.152 2398.315 2989.4884 2373.2864 2982.7498 2353.5523 2975.5299 2339.1124 2966.3848 2322.7476 2957.2396 2305.9014 2946.6507 2289.5364 2935.0989 2274.1343 2923.066 2258.732 2911.9957 2245.255 2895.1495 2228.89 2870.6019 2205.7867 2840.2786 2181.2393 2798.885 2150.4346 2730.537 2099.4146 2561.5936 1994.9678 2515.3868 1957.906 2499.0218 1944.429 2493.2459 1939.1345 2484.1009 1928.5454 2475.9183 1918.4376 2468.2174 1907.8485 2462.9227 1896.2969 2457.1468 1885.2265 2452.815 1873.1934 2450.4085 1860.6791 2448.0018 1848.646 2448.0018 1836.1317 2448.483 1823.6173 2449.4459 1810.1404 2451.8524 1796.6633 2455.2218 1783.1863 2459.072 1768.7467 2464.848 1754.3071 2471.5865 1740.3486 2477.8436 1725.9092 2484.582 1714.3574 2495.1712 1698.4739 2511.5362 1674.4077 2532.7144 1646.4911 2562.5562 1612.3174 2612.6136 1554.5587 2733.9066 1434.7097 2772.8939 1390.4281 2789.2584 1372.138 2794.5533 1365.8807 2805.6234 1350.9597 2818.6192 1332.1882 2837.8719 1304.2716 2845.5733 1286.4627 2850.3865 1274.911 2852.793 1268.6538 2853.7557 1257.1022 2855.681 1241.6998 2854.718 1219.0778 2850.3865 1200.3062 2846.0545 1180.572 2837.3907 1160.3566 2826.32 1142.5476 2815.25 1124.2575 2797.441 1105.0046 2783.4827 1092.4902 2773.375 1083.8264 2767.1177 1079.4946 2754.6036 1073.7188 2735.3504 1064.0923 2704.0648 1053.5032 2675.6668 1048.69 2644.862 1042.9142 2603.95 1044.3582 2576.0333 1044.8394 2555.8177 1045.3208 2541.378 1046.2835 2524.0506 1048.69 2506.2415 1051.0967 2491.3209 1053.9845 2470.1427 1060.2417 2438.8568 1069.3869 2391.6873 1086.7144 2355.5882 1103.0794 2321.4144 1118.0003 2299.7547 1129.0707 2258.8426 1152.6554 2181.3497 1197.8997 1992.6718 1330.7444 1932.0253 1365.8807 1909.8844 1378.8765 1900.7393 1383.6897 1884.3744 1389.9468 1868.9722 1396.204 1853.5698 1401.9797 1838.1676 1404.8677 1823.2466 1407.2744 1807.8444 1408.237 1792.9234 1406.7931 1777.5211 1404.8677 1760.6749 1398.6106 1746.2351 1392.8347 1733.721 1387.0588 1722.1692 1380.8018 1711.0988 1372.138 1699.5471 1363.4741 1690.402 1354.8103 1679.3316 1340.852 1662.4854 1320.1553 1643.2324 1287.4254 1625.4235 1254.6956 1603.7642 1214.2645 1582.586 1156.9873 1561.4078 1115.5936 1544.0803 1080.4572 1528.1967 1049.6526 1510.3878 1020.29208 1493.5416 992.3754 1475.7326 964.94009 1456.961 941.8367 1440.1149 920.6585 1418.4555 899.4804 1402.5718 885.5221 1391.9827 876.37698 1385.7256 871.5637 1374.1738 864.82528 1359.2528 855.6802 1335.1868 842.68447 1319.7846 838.8339 1309.6768 835.946 1302.9382 835.46469 1292.8306 836.9086 1277.4282 838.8339 1254.3248 845.09109 1236.5159 854.7175 1217.2631 865.7879 1198.4916 883.1155 1182.6079 902.3683 1164.7991 924.0278 1147.4714 957.7203 1136.4011 980.3424 1128.2186 997.1886 1124.8494 1007.2964 1119.0735 1025.1052 1110.4097 1051.5779 1097.4141 1096.3408 1092.1195 1123.7761 1088.2689 1143.0289 1086.825 1150.2488 1085.381 1173.3523 1082.493 1227.2603 1090.1942 1378.395 1089.2316 1442.8921 1088.2689 1478.9912 1088.2689 1500.1694 1084.4183 1527.1234 1081.0491 1553.1148 1074.3106 1583.438 1067.5722 1602.2095 1063.7216 1614.2426 1059.3897 1621.4624 1054.5764 1630.1262 1049.7633 1638.3086 1044.95 1645.5285 1038.6929 1652.267 1032.4357 1658.524 1024.7345 1664.2999 1017.03347 1669.1133 1008.85098 1673.4451 999.7058 1677.2957 990.07949 1680.1836 979.49038 1683.0715 967.45736 1685.4782 955.42428 1685.4782 943.39126 1685.4782 929.91427 1683.0715 917.3999 1680.1836 904.88558 1676.8143 895.7405 1673.4451 880.33816 1666.2254 850.97756 1652.7483 803.3268 1625.313 758.5639 1596.915 699.84268 1559.3718 601.17178 1480.4352 561.2221 1456.3692 545.3385 1446.7427 540.04397 1443.8547 525.6043 1438.5603 505.87019 1431.8218 476.99085 1424.1206 453.40614 1422.6768 430.3027 1420.7514 403.3487 1423.6393 385.5398 1427.0086 373.02546 1428.9338 366.287 1430.8591 355.21656 1436.1537 338.85163 1443.3735 315.2669 1455.8878 299.3833 1469.3648 283.4997 1482.8418 268.57875 1503.0574 259.43363 1517.0156 252.69513 1527.1234 249.8072 1533.3806 245.47531 1544.9324 239.69947 1561.7786 232.96096 1590.6578 231.517 1608.948 230.07303 1622.9064 231.03568 1631.5701 233.44228 1645.5285 236.3302 1666.2254 244.99399 1700.399 252.2138 1721.096 257.9897 1736.4982 262.8029 1744.6807 270.98536 1759.1203 282.53706 1779.8171 297.93934 1805.3272 318.63618 1831.3185 347.51545 1867.4176 399.0168 1920.8442 432.7093 1951.6488 456.29408 1972.8269 470.25239 1982.4534 497.20637 2001.7063 538.6 2032.0294 620.4246 2083.0496 659.893 2111.9288 683.4777 2129.7379 697.43606 2138.4014 714.2823 2156.692 733.53518 2177.8699 754.71328 2210.1182 767.22769 2233.2218 776.85409 2251.0308 783.5926 2264.989 786.96188 2282.7979 790.33108 2301.0882 788.8871 2321.3038 785.99917 2342.0006 782.62997 2364.6226 777.3354 2382.9127 765.30239 2412.7547 742.199 2471.4759 668.07546 2596.1383 640.1588 2661.5977 622.3499 2702.5103 610.7982 2734.2774 603.09707 2764.1192 597.3212 2786.7413 595.3959 2804.5504 593.95199 2824.2845 592.9893 2844.0186 592.9893 2865.1968 596.3586 2882.5245 599.7278 2898.4078 605.985 2915.254 612.7235 2925.8433 617.5367 2933.063 620.90597 2935.9508 628.6071 2941.7266 643.5281 2952.316 677.70187 2972.5313 700.8053 2979.27 720.5395 2984.5645 741.23629 2984.5645 757.6012 2983.6016 770.5969 2983.1207 778.29806 2980.7139 791.775 2977.3448 811.5092 2971.5689 838.4632 2962.9049 864.4545 2950.3907 898.1471 2934.5069 939.0594 2909.9595 974.19589 2885.412 1010.77627 2859.9024 1047.3566 2830.0604 1078.6426 2800.2183 1108.9658 2771.3389 1137.3637 2737.165 1159.9859 2709.2486 1177.7947 2687.1077 1189.8278 2671.224 1204.7487 2648.1207 1222.5576 2620.204 1242.7731 2586.0303 1259.1381 2552.338 1275.9843 2517.2012 1292.3493 2454.6297 1302.9382 2440.6715 1306.3075 2436.3394 1308.7141 2434.8956 1312.0834 2433.9327 1315.4526 2432.9703 1319.7846 2433.4515 1323.1537 2434.8956 1326.0416 2436.3394 1329.4109 2439.7086 1330.855 2442.5968 1331.8175 2445.9659 1331.3362 2453.667 1331.3362 2453.667"/>
</clipPath>
<clipPath id="clip_7">
<path transform="matrix(.24,0,0,.24,47.76,192.95999)" d="M0 0H2842V2213H0Z"/>
</clipPath>
<clipPath id="clip_8">
<path transform="matrix(.24,0,0,.24,0,0)" d="M0 0H3375V4218.75H0Z" clip-rule="evenodd"/>
</clipPath>
<clipPath id="clip_9">
<path transform="matrix(.24,0,0,.24,341.52,584.39999)" d="M0 0H176V270H0Z" clip-rule="evenodd"/>
</clipPath>
<path id="font_10_176" d="M.3580017 .33711244C.32533775 .35310365 .29400126 .35993449 .2639923 .35760499 .23399353 .35527549 .21099854 .34310914 .19500733 .32110597L.18600464 .30911256C.19000244 .30710856 .19500225 .30510459 .20100403 .3031006 .20166524 .30243937 .21066284 .29944358 .22799683 .29411317 .23467 .29210917 .2400055 .2901052 .2440033 .2881012 .2493337 .28477479 .2543335 .28110758 .2590027 .2770996 .2709961 .2637736 .2746633 .2484436 .27000428 .23110962 .26800028 .22244263 .26366679 .21477254 .25700379 .20809937 .2543386 .20610555 .252004 .20444234 .25 .20310974 .24799602 .20177715 .24566143 .20044454 .24299622 .19911194 .24166362 .19844055 .23966472 .19777425 .23699951 .19711304 .23499553 .19644165 .23166402 .19543965 .227005 .19410706L.19500733 .18310547C.16167195 .17110189 .13366699 .1587677 .11099243 .1461029 .08166504 .12944031 .06266785 .11344401 .054000856 .09811401 .04733785 .086110439 .049006147 .072774257 .059005739 .05810547 .06767273 .045440675 .08933512 .038441976 .12399292 .037109376 .16066487 .035776777 .19066875 .041107179 .21400452 .053100587 .21933492 .05577596 .22399903 .058446248 .22799683 .06111145 .23199463 .06377665 .23649089 .06743876 .2414856 .07209778 .24649048 .07676697 .24999492 .080434169 .2519989 .083099368L.26600648 .099105838C.2733307 .10710144 .2786611 .11276754 .28199769 .116104129 .29066468 .12610372 .3014984 .13143413 .3144989 .13209534 .3274994 .13276673 .33883158 .12876892 .34849549 .12010193 .35816957 .11143494 .3633372 .1006012 .3639984 .08760071 .3646698 .07460022 .360672 .063435878 .352005 .054107667 .3506724 .05210368 .34617106 .046773275 .33850099 .038116456 .3308309 .029469809 .32499696 .023147583 .32099916 .01914978L.30400086 .0021972657C.29666648-.004445394 .28916423-.010426839 .28149415-.01574707 .27383424-.0210673 .26533509-.026056925 .2559967-.030715943 .21933492-.049992879 .17433675-.05863444 .1210022-.056640626 .05500285-.05464681 .008336385-.03370158-.018997193 .0061950685-.050999959 .052805585-.05366516 .09911092-.026992798 .14511109-.009668986 .17510987 .020996094 .20244344 .06500244 .22711182 .07967123 .23510742 .09500122 .24277242 .11099243 .2501068 .10033163 .261439 .093332927 .2741038 .08999634 .2881012 .08466593 .30810038 .08766683 .32843528 .09899902 .34910584 .10166422 .35310365 .10833231 .36243693 .119003299 .3771057 .13699849 .4011027 .15833028 .4194336 .18299866 .4320984 .20766704 .44477336 .23283386 .4512736 .25849916 .45159913 .28416444 .4519348 .3084971 .44960023 .3314972 .44459535 .35449729 .43960063 .3766632 .43243919 .397995 .42311097 .40932719 .4177704 .41732789 .40893556 .42199708 .39660646 .42666627 .38427735 .42633058 .37227885 .42099 .36061097 .41565959 .34894309 .40682984 .34077455 .39450074 .33610536 .38217164 .33143617 .37000529 .33177186 .3580017 .33711244Z"/>
<clipPath id="clip_11">
<path transform="matrix(.24,0,0,.24,0,0)" d="M0 0H3375V4218.75H0Z"/>
</clipPath>
<clipPath id="clip_12">
<path transform="matrix(.24,0,0,.24,0,0)" d="M0 0H3375V4218.75H0Z"/>
</clipPath>
<clipPath id="clip_13">
<path transform="matrix(.24,0,0,.24,0,0)" d="M1156.4022 2341.446 1486.3644 2366.2276 1453.6024 2802.4488 1123.6403 2777.6673 1156.4022 2341.446Z"/>
</clipPath>
<clipPath id="clip_14">
<path transform="matrix(.24,0,0,.24,0,0)" d="M1129.0474 2761.0018C1176.0486 2712.4346 1186.0491 2695.6986 1197.3269 2676.5084 1211.5487 2652.0743 1224.0952 2625.6929 1240.4735 2591.9486 1263.8181 2543.062 1302.3128 2428.279 1321.5333 2410.0496 1326.651 2404.9693 1331.8589 2403.5389 1335.4271 2404.5355 1338.606 2405.867 1340.8154 2410.4049 1342.1642 2416.6995 1346.1018 2437.0325 1327.5267 2519.4302 1326.0746 2548.4664 1325.0407 2562.2327 1322.141 2576.5875 1325.9083 2579.785 1328.6705 2581.814 1335.0468 2579.3785 1339.6661 2576.082 1346.2057 2571.473 1350.563 2561.9637 1358.8696 2548.3792 1379.5136 2516.048 1442.2717 2398.3516 1456.2216 2377.5404 1459.5006 2372.686 1459.9989 2370.9019 1463.4226 2368.9732 1467.9603 2366.7637 1479.0735 2364.3197 1482.8135 2367.8792 1487.251 2371.8558 1484.9585 2382.9774 1483.2272 2396.327 1479.3294 2428.8228 1450.8096 2512.6593 1439.1665 2560.9676 1430.5405 2598.2086 1427.7366 2650.095 1418.8688 2661.4515 1416.0608 2664.8839 1412.302 2666.4229 1409.7933 2665.87 1407.2847 2665.3175 1403.2367 2661.0059 1403.4544 2658.108 1403.2825 2655.5447 1408.8168 2649.767 1411.3799 2649.5953 1414.3054 2649.4508 1419.6936 2655.32 1419.8381 2658.2454 1419.6477 2660.7813 1413.4432 2665.78 1410.8801 2665.952 1408.3442 2665.7615 1404.912 2662.9534 1403.3727 2659.1947 1400.1495 2648.7518 1408.4032 2621.3194 1414.1209 2593.6964 1424.342 2544.917 1451.8425 2421.2935 1465.947 2393.5718 1470.2227 2385.1495 1477.6228 2378.7833 1477.9579 2379.1727 1478.293 2379.5623 1462.1968 2399.848 1451.8068 2416.919 1432.304 2448.607 1393.2426 2527.28 1373.8488 2557.519 1363.9298 2573.1683 1356.5654 2583.909 1349.0838 2591.362 1344.7178 2596.1346 1341.5476 2599.5396 1337.037 2601.3868 1332.916 2602.899 1327.0108 2603.9127 1322.7179 2602.8616 1318.8146 2601.4754 1315.02 2598.6402 1312.7835 2594.4649 1308.8987 2587.9798 1307.7131 2579.5115 1307.2435 2566.3609 1306.6036 2536.0745 1320.9891 2417.295 1326.5049 2416.6163 1327.9812 2416.3629 1331.1686 2422.4312 1331.0955 2428.255 1330.5226 2450.435 1288.0103 2531.3992 1266.7764 2576.4368 1248.5136 2615.8687 1228.2218 2658.0626 1212.3333 2685.286 1202.2511 2703.1087 1195.2218 2714.239 1185.4661 2727.7147 1175.7377 2740.828 1165.0942 2756.4229 1154.6055 2765.1072 1147.2326 2771.111 1136.8527 2778.3465 1131.4458 2777.5762 1128.2125 2776.969 1124.889 2772.712 1124.7173 2770.149 1124.2103 2767.1964 1129.0474 2761.0018 1129.0474 2761.0018"/>
</clipPath>
<clipPath id="clip_15">
<path transform="matrix(.24,0,0,.24,269.75999,567.36)" d="M0 0H363V415H0Z"/>
</clipPath>
<clipPath id="clip_16">
<path transform="matrix(.24,0,0,.24,0,0)" d="M0 0H3375V4218.75H0Z"/>
</clipPath>
<clipPath id="clip_17">
<path transform="matrix(.24,0,0,.24,0,0)" d="M0 0H3375V4218.75H0Z"/>
</clipPath>
<clipPath id="clip_18">
<path transform="matrix(.24,0,0,.24,0,0)" d="M1937.1036 2353.26 1964.6874 2383.2886 1886.3724 2455.227 1858.7888 2425.1983 1937.1036 2353.26Z"/>
</clipPath>
<clipPath id="clip_19">
<path transform="matrix(.24,0,0,.24,0,0)" d="M1881.9758 2424.3626C1912.072 2375.6588 1923.2997 2362.9154 1931.6886 2360.879 1935.5177 2359.7916 1939.1719 2360.4847 1942.9022 2361.9176 1946.7088 2364.0906 1951.3984 2367.8819 1952.9137 2372.1595 1954.9087 2377.6165 1950.631 2384.7855 1946.1022 2392.995 1936.565 2408.2354 1901.6716 2445.1473 1889.05 2447.8319 1884.4902 2448.7808 1879.2982 2447.0706 1877.2807 2444.874 1875.5905 2442.377 1875.5593 2435.1163 1877.5995 2434.0523 1879.2361 2432.5489 1887.4275 2435.5535 1888.7142 2437.611 1890.4046 2440.1082 1889.7047 2447.2305 1887.3373 2448.5953 1885.6245 2449.3587 1880.1052 2447.949 1878.0877 2445.7528 1876.0702 2443.5562 1874.631 2440.0186 1875.6355 2435.8563 1878.649 2423.369 1937.6736 2377.2496 1938.0772 2377.6888 1938.8842 2378.5675 1916.6265 2399.0128 1909.4791 2409.6278 1903.6411 2419.04 1901.9143 2433.5853 1896.1213 2436.4769 1893.0993 2438.4429 1887.6561 2437.7733 1885.3113 2435.8775 1883.2937 2433.6812 1881.9758 2424.3626 1881.9758 2424.3626"/>
</clipPath>
<clipPath id="clip_20">
<path transform="matrix(.24,0,0,.24,449.75999,566.16)" d="M0 0H81V91H0Z"/>
</clipPath>
<clipPath id="clip_21">
<path transform="matrix(.24,0,0,.24,0,0)" d="M0 0H3375V4218.75H0Z"/>
</clipPath>
<clipPath id="clip_22">
<path transform="matrix(.24,0,0,.24,0,0)" d="M0 0H3375V4218.75H0Z"/>
</clipPath>
<clipPath id="clip_23">
<path transform="matrix(.24,0,0,.24,0,0)" d="M1931.1246 2301.3753 2019.2127 2368.625 1714.1372 2768.2325 1626.0492 2700.9827 1931.1246 2301.3753Z"/>
</clipPath>
<clipPath id="clip_24">
<path transform="matrix(.24,0,0,.24,0,0)" d="M1865.7632 2472.5157C1850.9635 2455.414 1851.2521 2447.8975 1852.4019 2438.4595 1854.4376 2423.8948 1860.7802 2399.7235 1869.7514 2384.006 1877.7898 2369.511 1889.75 2355.4312 1901.829 2345.9549 1911.5878 2337.9312 1922.9486 2331.7755 1933.9739 2329.2318 1944.3056 2326.8033 1956.1675 2325.5433 1965.3739 2329.348 1974.5802 2333.1529 1984.3594 2342.5528 1988.5902 2352.875 1992.6532 2365.0032 1989.4921 2385.801 1985.926 2399.197 1983.2213 2410.6719 1978.0779 2418.9954 1971.7622 2429.6478 1963.8201 2441.6373 1950.9984 2457.6387 1940.7608 2467.8758 1932.7716 2475.961 1925.2611 2481.8328 1917.2965 2486.713 1909.9539 2490.7784 1904.119 2488.9029 1895.915 2494.89 1876.1825 2508.8389 1840.8027 2555.9747 1814.466 2588.0928 1787.8899 2621.3175 1758.7767 2664.211 1737.2478 2691.6177 1722.6318 2710.7625 1704.0203 2739.107 1699.4048 2738.8072 1698.3287 2738.6304 1697.8992 2734.4339 1697.8992 2734.4339 1697.5166 2734.1419 1700.3132 2740.79 1699.5234 2743.411 1698.6621 2745.3323 1695.7202 2747.5997 1693.3285 2748.3529 1691.2478 2748.6986 1687.637 2747.876 1686.4176 2746.3004 1684.8157 2744.4327 1685.7015 2739.3065 1687.281 2734.0648 1690.6078 2721.7752 1702.9998 2701.5775 1715.177 2679.2813 1734.5313 2644.4117 1771.2532 2582.8265 1795.3191 2545.751 1812.9977 2518.6285 1830.3654 2491.9134 1844.2631 2476.0887 1852.4917 2466.8968 1860.4093 2458.1124 1865.8861 2456.4908 1868.5886 2455.3304 1871.1235 2455.9759 1872.3428 2457.5516 1874.2557 2459.012 1875.1395 2464.1998 1874.2782 2466.1214 1872.7949 2468.8575 1866.0026 2471.4088 1863.7787 2470.3558 1861.8659 2468.8956 1859.7627 2462.1319 1861.3176 2460.0953 1862.4899 2457.7664 1870.0474 2455.799 1871.9602 2457.2596 1873.8732 2458.7198 1874.6138 2462.509 1873.4169 2468.0428 1869.1326 2484.759 1823.1349 2531.5257 1798.136 2569.823 1768.3047 2616.0367 1725.9564 2708.7874 1708.8057 2727.2864 1703.9979 2731.9979 1699.3108 2730.9984 1697.8992 2734.4339 1696.4158 2737.17 1699.8345 2743.0037 1698.2796 2745.0404 1696.7246 2747.077 1689.8607 2748.929 1687.9479 2747.4688 1685.2698 2745.424 1685.7262 2736.1014 1689.3392 2726.6094 1699.5567 2698.9488 1770.5286 2617.0899 1802.2236 2578.7464 1823.2022 2552.8538 1841.2859 2533.1326 1857.8862 2516.1475 1870.6116 2502.6517 1880.8493 2492.4146 1892.5455 2482.6463 1904.3135 2473.5775 1917.5156 2468.1824 1928.5183 2458.5296 1939.1386 2448.5845 1949.4008 2435.1424 1956.9605 2422.8607 1963.6587 2412.5006 1969.2092 2401.2642 1971.603 2390.1966 1974.3793 2379.4212 1976.1041 2365.2642 1973.1643 2357.217 1970.7503 2350.8607 1965.251 2345.3729 1958.7227 2343.6126 1950.3529 2341.0914 1935.6206 2345.318 1926.5083 2349.322 1918.7114 2352.3963 1913.1384 2356.5233 1906.7041 2362.5718 1898.9542 2369.55 1889.4102 2379.672 1883.1661 2391.0238 1876.6826 2403.4822 1871.1546 2421.828 1869.215 2433.887 1867.9219 2441.9263 1866.9397 2449.558 1868.5886 2455.3304 1870.4769 2459.9957 1878.2246 2463.3316 1877.8175 2466.2445 1877.0278 2468.8653 1865.7632 2472.5157 1865.7632 2472.5157"/>
</clipPath>
<clipPath id="clip_25">
<path transform="matrix(.24,0,0,.24,404.16,558)" d="M0 0H309V424H0Z"/>
</clipPath>
<clipPath id="clip_26">
<path transform="matrix(.24,0,0,.24,0,0)" d="M0 0H3375V4218.75H0Z" clip-rule="evenodd"/>
</clipPath>
<clipPath id="clip_27">
<path transform="matrix(.24,0,0,.24,448.08,606.24)" d="M0 0H969V577H0Z" clip-rule="evenodd"/>
</clipPath>
<path id="font_10_188" d="M.06700134 .14399719C.073664348 .1426646 .079330448 .13999939 .083999637 .13600159 .08533224 .1353302 .092666629 .12866211 .10600281 .115997318 .11000061 .11199951 .1130015 .10966492 .11500549 .10899353 .13699849 .09966532 .16366577 .103001918 .19500733 .119003299 .22833252 .13699849 .2583313 .16399639 .28500367 .19999695 .31100465 .23466492 .32500205 .266332 .32699586 .29499818 .32832847 .31566874 .32132975 .32933555 .30599977 .33599855 .29933677 .3393351 .28667198 .34033714 .26800538 .33900453 .24933879 .3376719 .23300171 .33467103 .21899414 .33000184 .18966675 .31933085 .16116841 .29732768 .13349915 .2639923 .10582987 .23066712 .08366394 .19066875 .06700134 .14399719M.04800415-.21600342 .035995485-.20599365C.027999878-.19933065 .020334879-.19233196 .013000488-.18499756 .005004883-.17766316-.0013275147-.17066448-.005996704-.16400147-.02599589-.13533528-.039662679-.101999919-.04699707-.06399536-.053670248-.02532959-.054840089 .013000488-.05050659 .050994874-.046173097 .08899943-.037668867 .1269989-.024993897 .16499329-.0049947106 .22366841 .023503622 .27633668 .0605011 .32299806 .09749857 .3696696 .14033 .40133668 .18899536 .41799928 .20966594 .42533366 .23366802 .43033348 .2610016 .43299867 .29566957 .43566386 .32400004 .43199668 .34599305 .42199708 .37332664 .4086609 .39315797 .39015708 .40548707 .3664856 .41782633 .3428243 .42299906 .31666056 .42100526 .28799439 .41699729 .24133301 .396993 .19333394 .36099244 .14399719 .32566325 .09600321 .28466798 .060002645 .23800659 .035995485 .18000286 .005996704 .1263326 .001663208 .07699585 .022994996 .066335048 .027664185 .05500285 .03533427 .042999269 .04600525 .035664876-.0213267 .04466756-.07332865 .070007327-.11000061 .07333374-.11399841 .07632955-.11716207 .07899475-.11949158 .08165995-.12183126 .08616129-.12549846 .09249878-.13049317 .098836269-.13549805 .10533651-.14133199 .11199951-.147995 .12133789-.15666199 .12633769-.16749573 .1269989-.18049622 .12767029-.1934967 .12350464-.20466106 .11450195-.21398926 .10549927-.22332764 .09449768-.22832744 .08149719-.22898865 .068496707-.22966004 .057332357-.22533162 .04800415-.21600342Z"/>
<path id="font_10_199" d="M.1210022 .2400055C.1110026 .22066753 .10366821 .20200093 .09899902 .18400574 .086995448 .13466899 .095326747 .10266622 .12399292 .08799744 .1346639 .08266703 .14849854 .07949829 .16549683 .07849121 .18249512 .0774943 .19666036 .079330448 .20799256 .083999637 .2393341 .09600321 .26533509 .12000529 .28599549 .15600586 .30732728 .19200643 .31866456 .2300059 .32000733 .27000428 .32133994 .30333964 .31533814 .32633973 .30200196 .33900453 .29133097 .3496653 .27199809 .34899903 .2440033 .33700563 .23866272 .33500163 .22665914 .32366435 .20799256 .30299378L.19200135 .28399659 .17599488 .26600648C.17066448 .26000468 .16733296 .2563375 .16600037 .25500489 .15399678 .24099732 .13899739 .23599752 .1210022 .2400055M.20399475 .42199708 .20599365 .42300416C.2726644 .45167033 .32633464 .44633485 .3670044 .40699769 .40033976 .3749949 .41600547 .32832847 .41400147 .2669983 .41266886 .23233032 .40583293 .1974945 .39349366 .16249085 .38116456 .12749736 .36166383 .09449768 .33499146 .06349182 .30832926 .032496137 .2773336 .009999593 .2420044-.0039978029 .21799724-.012664795 .19099427-.016331992 .16099549-.01499939 .1309967-.013666789 .10466512-.007334391 .08200073 .0039978029 .06133016 .0139973959 .04449463 .027160645 .03149414 .04348755 .018493653 .059824628 .00982666 .0774943 .005493164 .09649658 .001159668 .11549886-.0006713867 .1339976 0 .1519928 .0006713867 .16999817 .0033365887 .18833415 .0079956059 .20700073 .016662598 .2403361 .030329386 .2730001 .04899597 .30499269 .06766256 .33699546 .08733114 .3626658 .10800171 .38200379 .1126709 .3860016 .118337 .39016725 .125 .39450074 .13166301 .39883424 .13782756 .40250144 .14349365 .40550233 .14915975 .4085032 .154658 .41116844 .1599884 .41349793 .16532898 .41583763 .16833496 .41733805 .16900635 .41799928 .18033855 .42466227 .19200135 .42599488 .20399475 .42199708M.37800599 .598999 .3639984 .54100039C.36066184 .5283356 .35349528 .51866659 .34249879 .5119934 .3315023 .5053304 .31966654 .5034993 .30699159 .50650027 .29432679 .50950118 .28466288 .5164998 .27799989 .52749636 .27133689 .538503 .26933799 .55033877 .27200318 .56300356L.28599549 .6210022C.28933207 .633667 .29649864 .6433309 .30749513 .6499939 .3185018 .65666708 .33033753 .65850326 .34300233 .6555023 .3556671 .6525014 .36533103 .6454976 .37199403 .63449099 .3786672 .62349447 .38067118 .6116638 .37800599 .598999Z"/>
<path id="font_10_179" d="M.4149933 .43359376C.42166648 .45825196 .42633567 .48291526 .42900086 .5075836 .43299867 .5362498 .43332926 .56192019 .42999269 .5845947 .42933146 .59125778 .42833457 .59691879 .42700196 .60157778 .42566935 .60624697 .4244995 .6097463 .42349244 .6120758 .4224955 .61441549 .42149864 .6164195 .4205017 .61808779 .4195048 .61975607 .41867066 .62092086 .41799928 .62158206 .40333048 .6262512 .38282777 .623586 .3564911 .6135864 .33016459 .60358688 .30533348 .5872548 .28199769 .56459048 .2659963 .54858908 .25482688 .5335846 .24848938 .519577 .24216207 .50557968 .23966472 .49424745 .24099732 .48558045 .24232991 .4769236 .24633281 .46925865 .25300599 .46258546 .2710012 .44525147 .30199687 .43558757 .34599305 .43359376 .3600006 .43292237 .38233439 .43292237 .41299439 .43359376H.4149933M.15800476 .34384156 .13400269 .3068695C.1293335 .29886375 .1259969 .29286195 .12399292 .28886415 .11999512 .28152976 .11366272 .26219688 .10499573 .23086548 .098993938 .2088623 .09466044 .19019573 .09199524 .17486573 .08866882 .15286255 .08733622 .14052837 .08799744 .13786316 .09866842 .11519877 .1210022 .10686747 .15499878 .11286926 .19366455 .119532268 .22866313 .13619487 .2599945 .16285706 .31000266 .2055308 .35100303 .26452638 .3829956 .33984376 .36766563 .33918254 .3539988 .33918254 .34199525 .33984376 .27400209 .34318034 .22300212 .36151634 .18899536 .39485169 .16899617 .41351829 .15599568 .4343516 .1499939 .45735169 .14400228 .48035179 .14417012 .5025177 .15049744 .5238495 .15683492 .5451813 .16566976 .56467697 .17700196 .5823364 .18833415 .6000061 .20133464 .61651107 .21600342 .6318512 .24800618 .66318258 .28566996 .6873474 .32899476 .7043457 .3723297 .721344 .4126638 .7231801 .44999696 .7098541 .4913279 .69518539 .5159963 .6575165 .5240021 .59684756 .5279999 .56617739 .5276642 .5325114 .522995 .4958496 .5196686 .47118125 .51500448 .44651286 .5090027 .42184449 .5216675 .41118369 .52733358 .39785258 .526001 .3818512 .5246684 .370519 .52016708 .36085 .51249697 .35284425 .50483706 .34484864 .4953359 .3401896 .48399354 .3388672 .44599916 .23420207 .39133708 .15153504 .32000733 .09086609 .30066935 .07486471 .27799989 .060531618 .2519989 .04786682 .22533672 .03453064 .19866944 .025527955 .17199707 .020858765 .1373291 .014856975 .104660037 .01735433 .07398987 .02835083 .043329877 .039357503 .019999186 .06253052 .0039978029 .09786987-.0060017907 .11853027-.007334391 .14952596 0 .19085694 .0033365887 .21085613 .008336385 .2328593 .01499939 .25686646 .024998984 .29352824 .03333028 .31819154 .039993287 .33085633 .043329877 .33818055 .04832967 .34717814 .054992677 .35784913L.07800293 .3938446C.08466593 .4045156 .094329837 .41118369 .10699463 .41384889 .119669597 .41718547 .13150533 .41551719 .14250183 .408844 .15349834 .402181 .16049703 .392512 .16349793 .37983705 .16649883 .36717225 .16466777 .35517375 .15800476 .34384156Z"/>
<path id="font_10_190" d="M.14399719 .2440033C.126002 .20667012 .12000529 .16933696 .12600708 .13200379 .13066609 .10600281 .13999939 .08766683 .15400696 .07699585 .16933696 .066996257 .19066875 .06666565 .21800232 .07600403 .2546641 .08866882 .28415934 .11466471 .30648805 .1539917 .3288269 .19332886 .33799745 .23066712 .33399964 .26600648 .33199565 .29066468 .32332865 .30433146 .30799867 .30700685 .27867127 .31366984 .2333374 .29566957 .17199707 .25300599 .16400147 .2470042 .15466817 .2440033 .14399719 .2440033M.42500306 .29299928C.42633567 .28699748 .42733256 .2809957 .42799378 .2749939 .43133036 .2403361 .426829 .20400493 .41448976 .16600037 .40216065 .1279958 .38149516 .092325847 .3524933 .05899048 .3235016 .025665284 .28933717 .0020039876 .25-.011993408 .19199626-.032663984 .1423289-.028666178 .100997928 0 .06433614 .02532959 .041671754 .06399536 .03300476 .115997318 .02567037 .16199748 .030832926 .20966085 .04849243 .25898744 .06616211 .3083242 .095331829 .34799705 .13600159 .37800599 .14067078 .3813324 .14666748 .38482667 .1539917 .38848878 .1613261 .39216105 .16799419 .3953298 .17399597 .397995L.19000244 .40400697C.19600423 .40667216 .19933574 .40833537 .19999695 .40899659 .20999654 .41299439 .21999614 .4139913 .22999573 .4119873 .23999532 .4099935 .24833171 .40499879 .25500489 .39700318 .28166709 .40366618 .30599977 .4043325 .32800294 .39900209 .3413391 .39633689 .3536733 .3916677 .3650055 .3849945 .3716685 .3856659 .37949626 .38616435 .38848878 .38648988 .39749146 .38682557 .40299479 .3869934 .40499879 .3869934H.41600038 .42599488C.42666627 .3869934 .429835 .38682557 .4355011 .38648988 .4411672 .38616435 .4458313 .38583375 .4494934 .38549806 .45316569 .38516236 .46000163 .3846639 .47000123 .3840027L.49899293 .38200379C.5123291 .3813324 .52316287 .37599693 .53149417 .3659973 .53983566 .3559977 .54367068 .34449769 .54299929 .3314972 .5423381 .3184967 .53700259 .3078308 .5269928 .2994995 .5169932 .2911682 .505661 .28733317 .49299623 .28799439 .48033143 .28866578 .4688314 .2894999 .4584961 .29049684 .4481608 .2915039 .44065858 .2921702 .43598939 .29249574 .43133036 .29283143 .42766825 .29299928 .42500306 .29299928Z"/>
<path id="font_10_178" d="M-.020004273 .272995C-.000005086263 .31032817 .02532959 .34566245 .055999757 .3789978 .07866415 .40433757 .10033163 .42200724 .1210022 .43200685 .15833538 .45133464 .19133504 .44833375 .22000122 .42300416 .24000041 .40433757 .248998 .37633769 .24699402 .33900453 .24633281 .33366395 .2456665 .32766215 .24499512 .32099916 .25499473 .33233134 .264328 .34233094 .272995 .35099793 .28633119 .3643341 .29833476 .375 .30900575 .3829956 .32499696 .39499919 .33999635 .40200297 .3540039 .40400697 .3773397 .40667216 .39933778 .39900209 .41999818 .3809967 .43532817 .3669993 .44532777 .35033164 .44999696 .33099366 .45132957 .32766725 .45199586 .32433573 .45199586 .32099916V.31300355L.45100404 .31100465C.45100404 .30900065 .45066834 .30699668 .44999696 .30499269 .44933573 .30299888 .44866944 .30066935 .44799806 .29800416 .44666545 .29400636 .44466654 .28767396 .44200135 .27900697L.42199708 .2230072C.4019979 .16299947 .3876648 .113332118 .3789978 .07400513 .372996 .048665365 .36966453 .027994791 .3690033 .011993408 .3769989 .016662598 .3853302 .022664389 .3939972 .02999878 .397995 .03333537 .40699769 .045333864 .42100526 .06599426L.45399476 .115997318C.46066795 .12666829 .4703369 .13333638 .4830017 .13600159 .4956665 .1386668 .50749716 .13650005 .51849368 .12950135 .5295003 .12250265 .53633627 .11266581 .53900149 .099990848 .5416667 .08732605 .5393321 .07532755 .5319977 .06399536L.49899293 .013000488C.48032633-.014333089 .46532694-.032669069 .45399476-.042007448 .42200218-.06866964 .39433799-.085001628 .3710022-.09100342 .35432945-.09500122 .33832804-.094329837 .32299806-.08898926 .30766807-.08365885 .29566957-.07299805 .28700257-.057006837 .27700297-.039001466 .2730001-.014663696 .2749939 .01600647 .2763265 .03799947 .28032939 .06399536 .28700257 .09399414 .29633079 .1373291 .31166078 .19033306 .33299256 .25300599L.34700013 .29100038 .33900453 .28399659C.31966654 .2646688 .29600016 .23800151 .26800538 .20399475 .21600342 .13999939 .17966716 .09133402 .15899658 .057998659 .15833538 .056666059 .15783692 .055165609 .15750122 .053497316 .15716553 .05182902 .15633138 .04899597 .15499878 .04499817 .15366619 .041000368 .15199788 .03633626 .1499939 .03100586 .1406657 .0030008953 .1253357-.01566569 .104003909-.024993897 .08733114-.03232829 .07132975-.031661989 .055999757-.022994996 .036661786-.011662801 .028996787 .005671183 .03300476 .029006958 .03433736 .037002565 .038335165 .047002157 .04499817 .059005739 .047663373 .06433614 .05032857 .06966654 .052993776 .07499695L.06100464 .08799744C.06233724 .090662639 .063334148 .09299723 .06399536 .09500122L.09899902 .17900086C.1210022 .2323354 .13500469 .2686666 .14100647 .28799439 .14766948 .30933634 .15133159 .32733665 .1519928 .34199525 .14399719 .33533225 .13499959 .32666526 .125 .31599427 .10033163 .28799949 .079330448 .2583364 .06199646 .227005 .05599467 .2156728 .046829225 .20817058 .034500123 .20449829 .02217102 .20083618 .010172526 .20216878-.0014953613 .2084961-.013163249 .21483357-.020828248 .22416687-.024490357 .23649597-.028162638 .24883525-.026667277 .2610016-.020004273 .272995Z"/>
<clipPath id="clip_28">
<path transform="matrix(.24,0,0,.24,0,0)" d="M0 0H3375V4218.75H0Z"/>
</clipPath>
<clipPath id="clip_29">
<path transform="matrix(.24,0,0,.24,0,0)" d="M0 0H3375V4218.75H0Z"/>
</clipPath>
<clipPath id="clip_30">
<path transform="matrix(.24,0,0,.24,0,0)" d="M1784.919 2400.709 2065.6915 2485.1993 1961.8467 2830.2894 1681.0744 2745.7994 1784.919 2400.709Z"/>
</clipPath>
<clipPath id="clip_31">
<path transform="matrix(.24,0,0,.24,0,0)" d="M1685.4563 2735.2957C1895.0519 2468.06 1898.7268 2462.5294 1903.4385 2461.905 1906.6265 2461.3328 1910.032 2463.3785 1911.453 2465.3377 1912.874 2467.2969 1911.2218 2474.4576 1911.2218 2474.4576 1910.761 2474.3189 1907.945 2465.3033 1909.8911 2463.8468 1913.9243 2460.4656 1934.8566 2474.4224 1952.4735 2477.6817 1978.9885 2483.108 2043.1843 2476.8997 2056.6273 2484.008 2060.9547 2486.3314 2063.1182 2487.493 2063.374 2491.654 2063.27 2512.0435 1957.9812 2619.7325 1927.5834 2660.616 1910.7583 2683.121 1900.3859 2707.568 1890.9367 2713.914 1887.185 2716.3587 1882.4735 2716.983 1880.4507 2715.3533 1878.8888 2713.8624 1877.9547 2706.9444 1879.5808 2704.881 1881.0662 2703.286 1888.364 2702.419 1889.785 2704.378 1891.8079 2706.0079 1891.6793 2713.1165 1890.194 2714.7115 1888.5679 2716.775 1882.9345 2717.1217 1881.2317 2716.0989 1879.2089 2714.469 1877.6087 2711.4349 1877.8139 2707.4127 1878.9285 2697.0269 1898.4807 2673.811 1915.4467 2650.8377 1943.7575 2611.8785 2012.7605 2522.8809 2036.8836 2499.5086 2045.5134 2490.874 2051.7364 2483.5574 2056.6273 2484.008 2059.5335 2484.372 2063.6175 2489.1746 2063.374 2491.654 2063.4505 2494.7403 2060.48 2497.9305 2056.4085 2499.7684 2047.8045 2503.3055 2026.2567 2501.416 2008.8572 2500.775 1987.1687 2499.3536 1956.4412 2496.2335 1936.9423 2490.8763 1922.3724 2487.513 1905.639 2482.988 1900.5951 2476.365 1897.6122 2472.9149 1897.779 2467.349 1898.6243 2464.5404 1899.5077 2463.2747 1901.454 2461.8184 1903.4385 2461.905 1905.5637 2461.5235 1910.032 2463.3785 1911.453 2465.3377 1912.874 2467.2969 1912.6306 2469.7762 1911.2218 2474.4576 1901.2078 2501.0543 1754.3418 2678.4256 1719.8341 2719.6043 1707.5292 2733.7696 1700.9603 2745.577 1694.3025 2747.6578 1690.9735 2748.698 1686.8255 2747.4498 1685.4044 2745.4906 1683.9834 2743.5313 1685.4563 2735.2957 1685.4563 2735.2957"/>
</clipPath>
<clipPath id="clip_32">
<path transform="matrix(.24,0,0,.24,403.91999,590.39999)" d="M0 0H381V289H0Z"/>
</clipPath>
<clipPath id="clip_33">
<path transform="matrix(.24,0,0,.24,0,0)" d="M0 0H3375V4218.75H0Z"/>
</clipPath>
<clipPath id="clip_34">
<path transform="matrix(.24,0,0,.24,0,0)" d="M0 0H3375V4218.75H0Z"/>
</clipPath>
<clipPath id="clip_35">
<path transform="matrix(.24,0,0,.24,0,0)" d="M2083.0643 1831.7647H2096.6165V1843.7224H2083.0643Z"/>
</clipPath>
<clipPath id="clip_36">
<path transform="matrix(.24,0,0,.24,0,0)" d="M2096.5789 1836.3334C2090.803 1845.9598 2085.027 1844.0346 2083.5833 1842.1093 2082.6207 1840.184 2083.5833 1833.9268 2085.5086 1832.4828 2087.4339 1831.0388 2095.1348 1832.9641 2095.1348 1832.9641"/>
</clipPath>
<clipPath id="clip_37">
<path transform="matrix(.24,0,0,.24,499.91999,439.44)" d="M0 0H14V13H0Z"/>
</clipPath>
<clipPath id="clip_38">
<path transform="matrix(.24,0,0,.24,0,0)" d="M0 0H3375V4218.75H0Z"/>
</clipPath>
<clipPath id="clip_39">
<path transform="matrix(.24,0,0,.24,0,0)" d="M0 0H3375V4218.75H0Z"/>
</clipPath>
<clipPath id="clip_40">
<path transform="matrix(.24,0,0,.24,0,0)" d="M2199.9127 1726.4417H2222.358V1756.0504H2199.9127Z"/>
</clipPath>
<clipPath id="clip_41">
<path transform="matrix(.24,0,0,.24,0,0)" d="M2206.8016 1737.6625C2211.6146 1731.4053 2222.2037 1745.845 2221.7225 1746.3263 2221.241 1746.8076 2207.2828 1734.7745 2206.8016 1735.2559 2205.8389 1736.2185 2222.2037 1750.1769 2222.2037 1753.5462 2222.2037 1754.5087 2220.7598 1755.9526 2219.3157 1755.9526 2216.4278 1755.4713 2205.8389 1733.8119 2205.8389 1733.8119 2205.8389 1733.8119 2217.8719 1749.2142 2217.3905 1752.5835 2216.9093 1753.5462 2215.465 1754.99 2214.0213 1754.5087 2210.652 1754.0274 2200.5443 1729.9613 2200.5443 1729.48 2200.5443 1729.48 2215.465 1755.4713 2215.465 1755.4713 2215.465 1755.4713 2199.5816 1727.0734 2200.063 1726.592 2200.5443 1726.1107 2218.353 1748.7329 2218.353 1752.5835 2217.8719 1754.0274 2216.4278 1755.4713 2215.465 1755.4713 2213.5399 1755.4713 2209.6895 1751.1395 2207.2828 1747.289 2204.3948 1742.957 2200.5443 1729.48 2201.5069 1728.9987 2202.4696 1728.5173 2217.8719 1748.7329 2217.3905 1752.5835 2216.9093 1753.5462 2214.984 1754.99 2214.0213 1754.5087 2211.6146 1754.0274 2204.8763 1734.2932 2205.8389 1733.8119 2206.8016 1733.3306 2222.2037 1750.1769 2222.2037 1753.5462 2222.2037 1754.5087 2220.7598 1755.9526 2219.3157 1755.9526 2216.4278 1755.4713 2205.3575 1736.6998 2206.8016 1735.2559 2207.7642 1734.7745 2222.2037 1745.3637 2221.7225 1745.845 2221.241 1746.3263 2211.6146 1744.8823 2209.6895 1741.9944 2207.7642 1739.5878 2209.6895 1731.8866 2209.208 1731.8866 2208.7269 1731.8866 2206.8016 1737.6625 2206.8016 1737.6625"/>
</clipPath>
<clipPath id="clip_42">
<path transform="matrix(.24,0,0,.24,527.76,414.24)" d="M0 0H24V30H0Z"/>
</clipPath>
<clipPath id="clip_43">
<path transform="matrix(.24,0,0,.24,0,0)" d="M0 0H3375V4218.75H0Z"/>
</clipPath>
<clipPath id="clip_44">
<path transform="matrix(.24,0,0,.24,0,0)" d="M0 0H3375V4218.75H0Z"/>
</clipPath>
<clipPath id="clip_45">
<path transform="matrix(.24,0,0,.24,0,0)" d="M2221.0662 1729.3052H2251.1207V1757.5302H2221.0662Z"/>
</clipPath>
<clipPath id="clip_46">
<path transform="matrix(.24,0,0,.24,0,0)" d="M2232.3116 1740.5504C2247.7139 1732.8493 2230.3863 1749.6956 2226.0545 1750.1769 2224.1292 1750.1769 2222.2039 1748.7329 2222.2039 1747.7703 2221.7225 1744.401 2242.9007 1728.9987 2247.2325 1729.48 2248.6766 1729.48 2249.6392 1730.4426 2249.6392 1731.8866 2249.6392 1735.2559 2232.3116 1751.1395 2227.4984 1752.1022 2226.0545 1752.1022 2223.6478 1751.1395 2223.1666 1750.1769 2223.1666 1747.7703 2247.7139 1733.3306 2247.7139 1734.2932 2248.195 1734.7745 2225.0919 1756.9153 2223.1666 1755.9528 2222.2039 1755.4714 2222.685 1752.1022 2224.1292 1750.1769 2227.017 1745.3637 2250.1204 1732.8493 2251.083 1733.8119 2251.5645 1734.7745 2225.573 1757.8779 2225.0919 1757.3966 2224.6104 1756.9153 2243.3819 1731.8866 2247.7139 1730.924 2249.1578 1730.4426 2251.083 1731.4053 2251.083 1732.3679 2251.5645 1734.7745 2244.3446 1741.5131 2240.0128 1745.3637 2234.718 1749.6956 2222.2039 1756.9153 2221.7225 1756.4341 2220.7598 1755.4714 2244.3446 1729.9613 2248.195 1730.4426 2249.6392 1730.924 2250.6019 1733.8119 2250.1204 1735.7372 2249.1578 1740.5504 2225.573 1757.8779 2225.0919 1757.3966 2224.6104 1756.9153 2243.8634 1731.8866 2248.195 1731.4053 2249.1578 1731.4053 2251.083 1732.3679 2251.083 1733.8119 2251.083 1737.1812 2227.017 1756.4341 2223.1666 1755.9528 2222.2039 1755.4714 2220.7598 1754.0275 2221.2413 1752.5835 2221.7225 1748.7329 2247.7139 1733.8119 2247.7139 1734.2932 2248.195 1734.7745 2233.2742 1750.1769 2228.461 1751.6209 2226.5357 1752.1022 2223.6478 1751.1395 2223.1666 1750.1769 2222.685 1747.289 2243.3819 1728.9987 2247.2325 1729.48 2248.6766 1729.48 2249.6392 1730.924 2249.6392 1732.3679 2249.1578 1735.7372 2227.4984 1751.6209 2223.6478 1751.1395 2222.685 1750.6582 2221.7225 1748.7329 2222.2039 1747.7703 2222.685 1743.4384 2241.4566 1728.9987 2244.826 1729.48 2246.2698 1729.48 2247.2325 1731.4053 2247.2325 1732.3679 2246.2698 1735.7372 2229.4237 1746.3263 2225.573 1745.3637 2224.1292 1745.3637 2222.685 1743.4384 2222.685 1741.9944 2223.1666 1739.1065 2235.1995 1733.3306 2239.05 1731.8866 2241.4566 1730.924 2244.3446 1730.4426 2244.826 1730.924 2245.7886 1731.8866 2245.3072 1733.8119 2244.3446 1735.2559 2242.9007 1737.6625 2232.3116 1740.5504 2232.3116 1740.5504"/>
</clipPath>
<clipPath id="clip_47">
<path transform="matrix(.24,0,0,.24,533.04,414.96)" d="M0 0H31V29H0Z"/>
</clipPath>
<clipPath id="clip_48">
<path transform="matrix(.24,0,0,.24,0,0)" d="M0 0H3375V4218.75H0Z"/>
</clipPath>
<clipPath id="clip_49">
<path transform="matrix(.24,0,0,.24,0,0)" d="M0 0H3375V4218.75H0Z"/>
</clipPath>
<clipPath id="clip_50">
<path transform="matrix(.24,0,0,.24,0,0)" d="M2224.0238 1741.1484H2246.6986V1756.7688H2224.0238Z"/>
</clipPath>
<clipPath id="clip_51">
<path transform="matrix(.24,0,0,.24,0,0)" d="M2228.461 1752.5836C2253.971 1731.8867 2246.2698 1745.3638 2241.938 1749.6957 2238.5687 1753.5463 2233.2742 1755.9529 2229.905 1756.4342 2227.9798 1756.9155 2224.6104 1756.9155 2224.1292 1755.9529 2224.1292 1755.4716 2228.461 1752.5836 2228.461 1752.5836"/>
</clipPath>
<clipPath id="clip_52">
<path transform="matrix(.24,0,0,.24,533.76,417.84)" d="M0 0H23V16H0Z"/>
</clipPath>
<clipPath id="clip_53">
<path transform="matrix(.24,0,0,.24,0,0)" d="M0 0H3375V4218.75H0Z"/>
</clipPath>
<clipPath id="clip_54">
<path transform="matrix(.24,0,0,.24,0,0)" d="M0 0H3375V4218.75H0Z"/>
</clipPath>
<clipPath id="clip_55">
<path transform="matrix(.24,0,0,.24,0,0)" d="M2233.665 1731.3452H2251.143V1745.6646H2233.665Z"/>
</clipPath>
<clipPath id="clip_56">
<path transform="matrix(.24,0,0,.24,0,0)" d="M2237.1246 1741.5132C2250.12 1730.4428 2244.8258 1742.4758 2242.9005 1742.9572 2241.9378 1742.9572 2240.0125 1741.0319 2240.0125 1740.0692 2240.0125 1738.1439 2250.6016 1733.812 2250.12 1732.8494 2250.12 1732.368 2244.3446 1733.3307 2244.3446 1733.3307 2244.3446 1733.3307 2249.639 1731.8867 2250.12 1732.8494 2251.0828 1734.2933 2241.9378 1743.4385 2241.9378 1743.4385 2241.9378 1743.4385 2251.0828 1731.4054 2251.0828 1731.4054 2251.0828 1731.4054 2243.3819 1743.9198 2240.0125 1745.3638 2237.606 1745.8451 2234.2366 1744.8825 2233.7554 1744.4011 2233.7554 1743.4385 2237.1246 1741.5132 2237.1246 1741.5132"/>
</clipPath>
<clipPath id="clip_57">
<path transform="matrix(.24,0,0,.24,535.92,415.44)" d="M0 0H19V15H0Z"/>
</clipPath>
<clipPath id="clip_58">
<path transform="matrix(.24,0,0,.24,0,0)" d="M0 0H3375V4218.75H0Z"/>
</clipPath>
<clipPath id="clip_59">
<path transform="matrix(.24,0,0,.24,0,0)" d="M0 0H3375V4218.75H0Z"/>
</clipPath>
<clipPath id="clip_60">
<path transform="matrix(.24,0,0,.24,0,0)" d="M1892.4225 2434.4056 1930.1051 2445.745 1914.8405 2496.4718 1877.1578 2485.132 1892.4225 2434.4056Z"/>
</clipPath>
<clipPath id="clip_61">
<path transform="matrix(.24,0,0,.24,0,0)" d="M1900.6786 2459.3834C1928.5824 2445.1612 1929.6878 2446.499 1929.2716 2447.8819 1928.4843 2452.1688 1903.9902 2468.422 1903.3458 2467.223 1903.0237 2466.6234 1914.2859 2450.9119 1917.3287 2450.8223 1918.3892 2450.6387 1919.8168 2452.5762 1919.4006 2453.959 1918.8906 2457.324 1891.5416 2469.7025 1891.403 2470.1634 1891.8638 2470.302 1908.6078 2459.7589 1911.2345 2461.0518 1912.6173 2461.468 1913.5839 2463.2667 1912.8456 2464.0499 1911.7361 2467.737 1884.7134 2475.69 1884.3912 2475.0904 1884.069 2474.4908 1909.807 2459.1143 1914.0939 2459.9017 1915.4766 2460.3179 1916.5819 2461.6558 1916.1658 2463.0384 1915.5172 2466.8643 1884.9866 2479.7933 1884.5256 2479.6546 1884.2035 2479.055 1918.801 2454.2813 1923.5488 2455.2073 1924.9315 2455.6234 1925.8982 2457.422 1925.482 2458.805 1924.556 2463.5526 1877.6975 2485.642 1877.3753 2485.0426 1877.3753 2485.0426 1911.8341 2460.7296 1914.3222 2462.4837 1915.5662 2463.3607 1914.9176 2467.1866 1913.3023 2469.2137 1909.933 2473.7288 1886.5977 2482.7913 1886.2754 2482.1917 1885.9533 2481.592 1912.6173 2461.468 1916.7654 2462.716 1917.8259 2462.5328 1919.1148 2464.9312 1918.3765 2465.714 1917.4057 2468.9405 1889.7833 2477.2156 1889.0003 2476.4774 1888.3558 2475.278 1918.801 2454.2813 1923.5488 2455.2073 1924.9315 2455.6234 1925.8982 2457.422 1925.482 2458.805 1924.6947 2463.0919 1884.8479 2480.2542 1884.5256 2479.6546 1884.2035 2479.055 1909.807 2459.1143 1914.0939 2459.9017 1915.4766 2460.3179 1916.4432 2462.1165 1916.1658 2463.0384 1915.195 2466.2647 1884.7134 2475.69 1884.3912 2475.0904 1884.069 2474.4908 1901.69 2462.7034 1906.8539 2462.2469 1909.4358 2462.0186 1912.9843 2463.5889 1912.8456 2464.0499 1912.8904 2465.5714 1892.0474 2471.3626 1891.403 2470.1634 1890.8972 2468.5032 1913.0419 2450.035 1917.3287 2450.8223 1918.2505 2451.0997 1919.8168 2452.5762 1919.4006 2453.959 1919.0294 2456.863 1904.129 2467.9613 1903.3458 2467.223 1902.885 2467.0843 1906.9478 2460.2645 1910.5005 2456.8099 1914.7916 2452.572 1924.2955 2444.3739 1927.061 2445.206 1928.5824 2445.1612 1929.5491 2446.96 1929.2716 2447.8819 1928.7617 2451.2469 1910.8185 2462.4346 1905.7933 2462.4302 1903.6724 2462.7974 1900.6786 2459.3834 1900.6786 2459.3834"/>
</clipPath>
<clipPath id="clip_62">
<path transform="matrix(.24,0,0,.24,450.47999,586.56)" d="M0 0H53V42H0Z"/>
</clipPath>
<clipPath id="clip_63">
<path transform="matrix(.24,0,0,.24,0,0)" d="M0 0H3375V4218.75H0Z"/>
</clipPath>
<clipPath id="clip_64">
<path transform="matrix(.24,0,0,.24,0,0)" d="M0 0H3375V4218.75H0Z"/>
</clipPath>
<clipPath id="clip_65">
<path transform="matrix(.24,0,0,.24,0,0)" d="M2200.5294 1684.627H2253.2264V1733.9022H2200.5294Z"/>
</clipPath>
<clipPath id="clip_66">
<path transform="matrix(.24,0,0,.24,0,0)" d="M2210.1707 1688.0864C2207.7642 1718.4097 2213.0587 1717.9284 2216.9093 1717.9284 2220.2784 1717.9284 2223.6478 1718.4097 2227.0169 1716.003 2233.7554 1711.6712 2244.8258 1687.6051 2249.1578 1686.6425 2251.083 1686.6425 2252.5269 1687.6051 2253.0084 1689.0491 2254.4522 1693.381 2242.4193 1714.0778 2236.162 1721.7789 2231.3489 1727.5548 2226.5357 1733.812 2221.241 1733.812 2215.465 1733.812 2205.8389 1727.5548 2202.951 1720.8163 2198.619 1712.6338 2202.4696 1686.1611 2203.9136 1685.6798 2204.8763 1685.6798 2204.3948 1715.5217 2210.1707 1720.335 2214.0213 1723.7042 2222.2037 1722.7416 2227.4984 1720.335 2233.7554 1717.9284 2242.4193 1703.0075 2242.9007 1703.4888 2243.3819 1703.9701 2235.1995 1719.3723 2229.9049 1722.7416 2226.5357 1725.1482 2221.7225 1726.1109 2217.8719 1725.1482 2213.54 1723.2229 2207.2828 1716.003 2205.3575 1710.2273 2203.4322 1703.4888 2206.32 1686.6425 2206.8016 1686.6425 2207.2828 1686.6425 2205.3575 1705.8954 2208.2454 1712.1525 2210.652 1716.9657 2214.5025 1721.7789 2219.3157 1721.7789 2226.5357 1722.2603 2246.2698 1695.7876 2248.195 1697.2316 2249.639 1698.1942 2240.9754 1720.8163 2233.7554 1724.6669 2227.4984 1728.0361 2213.54 1724.6669 2209.208 1721.7789 2206.8016 1720.335 2204.3948 1716.003 2205.3575 1715.0404 2206.8016 1713.5964 2233.2742 1723.7042 2233.2742 1725.6295 2232.7928 1726.5922 2220.2784 1727.5548 2215.9466 1725.6295 2211.6148 1723.7042 2204.3948 1716.4844 2205.3575 1715.0404 2206.32 1713.5964 2224.129 1724.1856 2231.3489 1721.7789 2238.5687 1718.891 2248.195 1697.2316 2248.195 1697.2316 2248.195 1697.2316 2237.1248 1716.4844 2231.3489 1720.8163 2227.0169 1724.1856 2222.2037 1726.5922 2217.8719 1725.6295 2213.54 1724.6669 2207.2828 1720.335 2205.3575 1715.0404 2201.9884 1708.302 2206.32 1686.6425 2206.8016 1686.6425 2207.2828 1686.6425 2206.32 1702.5261 2209.208 1708.7833 2211.1334 1713.5964 2215.465 1719.8536 2219.3157 1721.2976 2222.2037 1722.2603 2225.573 1720.8163 2228.461 1718.891 2233.2742 1716.003 2242.4193 1703.0075 2242.9007 1703.4888 2243.3819 1703.9701 2236.6434 1717.9284 2231.83 1721.7789 2227.9796 1725.1482 2222.685 1728.0361 2217.8719 1727.5548 2213.54 1727.0735 2207.7642 1724.1856 2205.3575 1719.3723 2201.0257 1712.6338 2203.4322 1686.1611 2203.9136 1685.6798 2203.9136 1685.6798 2202.951 1714.0778 2207.2828 1721.7789 2210.1707 1726.5922 2215.465 1730.4428 2219.797 1730.4428 2224.129 1729.9614 2228.461 1724.6669 2233.2742 1719.3723 2239.5313 1712.6338 2252.0457 1690.0117 2251.5643 1689.5304 2251.5643 1689.5304 2237.1248 1714.5591 2229.4237 1719.3723 2224.6104 1722.2603 2218.8345 1722.7416 2214.5025 1721.7789 2209.6895 1720.8163 2203.9136 1718.891 2201.9884 1714.5591 2199.1004 1709.746 2202.4696 1696.2689 2203.9136 1691.4557 2204.8763 1688.5678 2205.8389 1685.1985 2207.2828 1684.7172 2208.2454 1684.7172 2210.1707 1688.0864 2210.1707 1688.0864"/>
</clipPath>
<clipPath id="clip_67">
<path transform="matrix(.24,0,0,.24,528,404.16)" d="M0 0H54V50H0Z"/>
</clipPath>
<clipPath id="clip_68">
<path transform="matrix(.24,0,0,.24,0,0)" d="M0 0H3375V4218.75H0Z"/>
</clipPath>
<clipPath id="clip_69">
<path transform="matrix(.24,0,0,.24,0,0)" d="M0 0H3375V4218.75H0Z"/>
</clipPath>
<clipPath id="clip_70">
<path transform="matrix(.24,0,0,.24,0,0)" d="M2207.9822 1726.5169H2229.2279V1736.4817H2207.9822Z"/>
</clipPath>
<clipPath id="clip_71">
<path transform="matrix(.24,0,0,.24,0,0)" d="M2209.6893 1726.592C2228.9422 1733.3306 2216.4278 1733.8119 2214.984 1731.8866 2214.0213 1730.924 2215.9466 1727.0734 2215.9466 1727.0734 2215.9466 1727.0734 2214.984 1732.8493 2215.465 1732.8493 2215.465 1732.8493 2214.984 1728.9987 2216.4278 1728.5173 2218.353 1727.0734 2227.9796 1730.924 2228.9422 1732.8493 2229.4234 1733.8119 2228.4608 1735.7372 2227.0169 1736.2185 2224.129 1737.1812 2209.6893 1732.8493 2208.2454 1730.4426 2207.764 1728.9987 2209.6893 1726.592 2209.6893 1726.592"/>
</clipPath>
<clipPath id="clip_72">
<path transform="matrix(.24,0,0,.24,529.68,414.24)" d="M0 0H23V11H0Z"/>
</clipPath>
<clipPath id="clip_73">
<path transform="matrix(.24,0,0,.24,0,0)" d="M0 0H3375V4218.75H0Z"/>
</clipPath>
<clipPath id="clip_74">
<path transform="matrix(.24,0,0,.24,0,0)" d="M0 0H3375V4218.75H0Z"/>
</clipPath>
<clipPath id="clip_75">
<path transform="matrix(.24,0,0,.24,0,0)" d="M2205.735 1725.5261H2227.073V1733.733H2205.735Z"/>
</clipPath>
<clipPath id="clip_76">
<path transform="matrix(.24,0,0,.24,0,0)" d="M2208.7266 1725.6295C2226.054 1731.8867 2219.3155 1734.2933 2216.909 1733.3307 2214.9837 1732.368 2212.5772 1727.0735 2213.0584 1726.1109 2214.021 1725.1482 2227.0167 1731.8867 2227.0167 1732.8494 2226.5355 1733.812 2217.3902 1733.812 2213.5399 1732.8494 2210.6519 1731.8867 2206.3199 1729.4801 2205.8387 1728.0361 2205.8387 1727.0735 2208.7266 1725.6295 2208.7266 1725.6295"/>
</clipPath>
<clipPath id="clip_77">
<path transform="matrix(.24,0,0,.24,529.2,414)" d="M0 0H23V9H0Z"/>
</clipPath>
<clipPath id="clip_78">
<path transform="matrix(.24,0,0,.24,0,0)" d="M0 0H3375V4218.75H0Z"/>
</clipPath>
<clipPath id="clip_79">
<path transform="matrix(.24,0,0,.24,0,0)" d="M0 0H3375V4218.75H0Z"/>
</clipPath>
<clipPath id="clip_80">
<path transform="matrix(.24,0,0,.24,0,0)" d="M2207.1925 1722.6514H2223.7755V1731.6799H2207.1925Z"/>
</clipPath>
<clipPath id="clip_81">
<path transform="matrix(.24,0,0,.24,0,0)" d="M2217.3905 1728.5175C2209.208 1728.0361 2207.764 1723.7042 2208.2454 1723.2229 2209.6893 1722.2603 2224.129 1730.9241 2223.6475 1731.4054 2223.6475 1731.8867 2214.5025 1730.9241 2212.5772 1728.9988 2211.1334 1727.5548 2211.6146 1722.7416 2211.6146 1722.7416 2211.6146 1722.7416 2212.096 1729.9614 2211.6146 1729.9614 2211.6146 1729.9614 2209.6893 1725.6295 2210.6519 1725.1482 2211.6146 1724.1856 2223.6475 1730.9241 2223.6475 1730.9241 2223.1663 1730.9241 2207.2828 1724.1856 2207.2828 1724.1856 2207.2828 1724.1856 2217.3905 1728.5175 2217.3905 1728.5175"/>
</clipPath>
<clipPath id="clip_82">
<path transform="matrix(.24,0,0,.24,529.68,413.28)" d="M0 0H17V10H0Z"/>
</clipPath>
<clipPath id="clip_83">
<path transform="matrix(.24,0,0,.24,0,0)" d="M0 0H3375V4218.75H0Z"/>
</clipPath>
<clipPath id="clip_84">
<path transform="matrix(.24,0,0,.24,0,0)" d="M0 0H3375V4218.75H0Z"/>
</clipPath>
<clipPath id="clip_85">
<path transform="matrix(.24,0,0,.24,0,0)" d="M2209.712 1724.8738H2229.0587V1733.9022H2209.712Z"/>
</clipPath>
<clipPath id="clip_86">
<path transform="matrix(.24,0,0,.24,0,0)" d="M2219.797 1730.9241C2209.208 1728.0361 2210.1707 1726.1109 2211.1334 1725.1482 2213.5399 1724.1856 2228.9422 1728.5175 2228.9422 1730.4428 2228.9422 1731.4054 2223.6475 1733.812 2223.6475 1733.812 2223.6475 1733.812 2228.9422 1730.4428 2228.9422 1730.4428 2228.9422 1730.4428 2227.0169 1732.8494 2225.0916 1733.3307 2221.7222 1733.812 2211.1334 1730.9241 2210.1707 1728.9988 2209.208 1728.0361 2210.1707 1726.1109 2211.1334 1725.1482 2212.5772 1724.1856 2219.797 1726.1109 2220.7598 1727.5548 2221.241 1728.0361 2219.797 1730.9241 2219.797 1730.9241"/>
</clipPath>
<clipPath id="clip_87">
<path transform="matrix(.24,0,0,.24,530.16,413.75999)" d="M0 0H20V10H0Z"/>
</clipPath>
<clipPath id="clip_88">
<path transform="matrix(.24,0,0,.24,0,0)" d="M0 0H3375V4218.75H0Z"/>
</clipPath>
<clipPath id="clip_89">
<path transform="matrix(.24,0,0,.24,0,0)" d="M0 0H3375V4218.75H0Z"/>
</clipPath>
<clipPath id="clip_90">
<path transform="matrix(.24,0,0,.24,0,0)" d="M2197.8067 1683.6793H2224.3997V1754.7645H2197.8067Z"/>
</clipPath>
<clipPath id="clip_91">
<path transform="matrix(.24,0,0,.24,0,0)" d="M2222.685 1735.256C2224.129 1750.1769 2215.9466 1731.4054 2215.465 1731.4054 2214.984 1731.8867 2218.8345 1743.4384 2218.353 1743.4384 2217.8719 1743.4384 2214.0213 1730.9241 2213.0587 1731.4054 2212.5772 1731.4054 2214.0213 1739.1066 2213.0587 1739.5879 2211.6146 1740.0692 2206.32 1731.8867 2205.8389 1732.368 2205.3575 1732.368 2212.5772 1742.4757 2212.096 1743.4384 2211.1334 1743.9197 2203.4322 1737.6626 2203.4322 1737.6626 2202.951 1738.1439 2213.5399 1746.8076 2213.5399 1746.8076 2213.5399 1746.8076 2207.7642 1743.9197 2205.8389 1741.0319 2203.4322 1737.1813 2201.0257 1725.1482 2201.5069 1725.1482 2202.4696 1724.6669 2212.5772 1741.9944 2211.1334 1744.8823 2210.6519 1745.845 2208.7269 1746.8076 2207.7642 1746.3263 2204.3948 1744.8823 2197.6563 1728.9988 2198.1378 1725.6295 2198.619 1724.1856 2200.5443 1722.7416 2201.5069 1723.2229 2205.3575 1723.7042 2215.9466 1753.0648 2215.465 1753.5462 2215.465 1753.5462 2201.9884 1733.3307 2199.1004 1721.7789 2196.2125 1710.2273 2199.5816 1683.7545 2200.063 1683.7545 2201.0257 1683.7545 2200.063 1709.2647 2202.951 1720.8163 2205.3575 1732.8494 2217.8719 1753.5462 2216.4278 1754.5088 2215.465 1754.9901 2206.32 1744.401 2203.4322 1739.1066 2201.0257 1733.812 2199.1004 1722.2603 2199.5816 1722.2603 2200.063 1722.2603 2211.1334 1748.2516 2210.6519 1748.7329 2210.1707 1748.7329 2202.4696 1737.6626 2202.951 1737.1813 2203.4322 1737.1813 2209.6895 1742.4757 2209.6895 1741.9944 2209.6895 1741.9944 2203.9136 1739.1066 2203.9136 1737.6626 2203.9136 1736.7 2208.7269 1734.2933 2210.1707 1735.256 2211.6146 1735.7373 2212.5772 1742.4757 2212.5772 1742.4757 2212.096 1742.4757 2206.32 1730.9241 2206.32 1730.9241 2206.8016 1730.9241 2212.096 1739.5879 2212.5772 1739.5879 2213.0587 1739.5879 2208.2454 1731.8867 2209.208 1730.4428 2209.6895 1729.4801 2213.0587 1729.4801 2214.5025 1730.4428 2216.4278 1731.8867 2217.8719 1743.4384 2217.3905 1743.9197 2216.9093 1743.9197 2211.1334 1733.812 2212.096 1731.8867 2212.5772 1730.9241 2214.984 1730.4428 2216.4278 1730.9241 2219.3157 1732.8494 2224.6104 1749.2142 2224.129 1749.6956 2223.6478 1749.6956 2216.4278 1741.9944 2216.4278 1738.6253 2216.4278 1735.7373 2219.797 1731.4054 2220.7598 1731.4054 2221.7225 1731.8867 2222.685 1735.256 2222.685 1735.256"/>
</clipPath>
<clipPath id="clip_92">
<path transform="matrix(.24,0,0,.24,527.27999,403.91999)" d="M0 0H28V72H0Z"/>
</clipPath>
<clipPath id="clip_93">
<path transform="matrix(.24,0,0,.24,0,0)" d="M0 0H3375V4218.75H0Z"/>
</clipPath>
<clipPath id="clip_94">
<path transform="matrix(.24,0,0,.24,0,0)" d="M0 0H3375V4218.75H0Z"/>
</clipPath>
<clipPath id="clip_95">
<path transform="matrix(.24,0,0,.24,0,0)" d="M2084.2037 2067.708H2097.6827V2098.2869H2084.2037Z"/>
</clipPath>
<clipPath id="clip_96">
<path transform="matrix(.24,0,0,.24,0,0)" d="M2085.9898 2096.7283C2094.1724 2082.77 2097.06 2083.2513 2097.5416 2084.2139 2098.0228 2085.1766 2096.0975 2089.027 2094.6536 2089.5086 2092.7283 2089.9898 2086.9525 2086.1392 2085.5086 2082.77 2083.5833 2079.4007 2084.546 2067.849 2084.546 2067.849 2085.027 2067.849 2084.0645 2073.625 2085.5086 2076.513 2086.9525 2079.882 2095.135 2082.2886 2095.6163 2085.658 2096.0975 2089.5086 2091.7657 2097.691 2089.3592 2098.1724 2088.3966 2098.6536 2085.9898 2096.7283 2085.9898 2096.7283"/>
</clipPath>
<clipPath id="clip_97">
<path transform="matrix(.24,0,0,.24,500.16,496.08)" d="M0 0H14V32H0Z"/>
</clipPath>
<clipPath id="clip_98">
<path transform="matrix(.24,0,0,.24,0,0)" d="M0 0H3375V4218.75H0Z"/>
</clipPath>
<clipPath id="clip_99">
<path transform="matrix(.24,0,0,.24,0,0)" d="M0 0H3375V4218.75H0Z"/>
</clipPath>
<clipPath id="clip_100">
<path transform="matrix(.24,0,0,.24,0,0)" d="M2093.9749 2044.1401H2098.2523V2052.0106H2093.9749Z"/>
</clipPath>
<clipPath id="clip_101">
<path transform="matrix(.24,0,0,.24,0,0)" d="M2094.1724 2051.9654C2093.691 2036.563 2098.9857 2048.5963 2098.023 2050.5213 2097.5416 2051.9654 2094.1724 2051.9654 2094.1724 2051.9654"/>
</clipPath>
<clipPath id="clip_102">
<path transform="matrix(.24,0,0,.24,502.31999,490.56)" d="M0 0H6V8H0Z"/>
</clipPath>
<clipPath id="clip_103">
<path transform="matrix(.24,0,0,.24,0,0)" d="M0 0H3375V4218.75H0Z"/>
</clipPath>
<clipPath id="clip_104">
<path transform="matrix(.24,0,0,.24,0,0)" d="M0 0H3375V4218.75H0Z"/>
</clipPath>
<clipPath id="clip_105">
<path transform="matrix(.24,0,0,.24,0,0)" d="M1675.4364 2700.9954 1757.9241 2725.8177 1743.1703 2774.8465 1660.6828 2750.0242 1675.4364 2700.9954Z"/>
</clipPath>
<clipPath id="clip_106">
<path transform="matrix(.24,0,0,.24,0,0)" d="M1678.0265 2706.5343C1679.5225 2736.6402 1683.1116 2744.7574 1686.7498 2749.3707 1689.7435 2752.7847 1692.415 2755.599 1697.024 2756.986 1703.799 2759.5274 1716.4312 2759.3077 1725.7922 2756.5955 1735.1533 2753.8834 1753.0068 2739.6529 1753.4678 2739.7916 1753.7899 2740.391 1735.2429 2756.9263 1726.2041 2760.2379 1718.8253 2763.044 1710.7573 2763.1295 1704.0274 2762.1094 1698.2191 2761.367 1693.0104 2760.302 1688.6339 2756.472 1682.2304 2751.0264 1675.4191 2736.9134 1673.1679 2727.6912 1671.2837 2720.5899 1672.5361 2711.4166 1673.9231 2706.8074 1674.6166 2704.503 1676.5093 2701.554 1676.9702 2701.6927 1677.4312 2701.8314 1678.0265 2706.5343 1678.0265 2706.5343"/>
</clipPath>
<clipPath id="clip_107">
<path transform="matrix(.24,0,0,.24,401.03999,648.24)" d="M0 0H83V63H0Z"/>
</clipPath>
<clipPath id="clip_108">
<path transform="matrix(.24,0,0,.24,0,0)" d="M0 0H3375V4218.75H0Z"/>
</clipPath>
<clipPath id="clip_109">
<path transform="matrix(.24,0,0,.24,0,0)" d="M0 0H3375V4218.75H0Z"/>
</clipPath>
<clipPath id="clip_110">
<path transform="matrix(.24,0,0,.24,0,0)" d="M2183.6453 2180.809H2304.69V2198.5484H2183.6453Z"/>
</clipPath>
<clipPath id="clip_111">
<path transform="matrix(.24,0,0,.24,0,0)" d="M2300.659 2196.843C2285.2569 2182.4036 2249.1578 2184.81 2229.4234 2187.2169 2212.5772 2189.142 2184.1793 2199.731 2183.698 2198.287 2183.2166 2196.843 2196.6937 2188.1795 2204.3948 2185.7728 2212.096 2183.3663 2218.8345 2183.8475 2229.4234 2183.3663 2246.2698 2182.4036 2285.738 2178.0716 2296.8084 2183.8475 2301.6217 2186.7354 2304.991 2193.4739 2304.5096 2195.3992 2304.0284 2196.3619 2300.659 2196.843 2300.659 2196.843"/>
</clipPath>
<clipPath id="clip_112">
<path transform="matrix(.24,0,0,.24,523.92,523.2)" d="M0 0H122V19H0Z"/>
</clipPath>
<clipPath id="clip_113">
<path transform="matrix(.24,0,0,.24,0,0)" d="M0 0H3375V4218.75H0Z"/>
</clipPath>
<clipPath id="clip_114">
<path transform="matrix(.24,0,0,.24,0,0)" d="M0 0H3375V4218.75H0Z"/>
</clipPath>
<clipPath id="clip_115">
<path transform="matrix(.24,0,0,.24,0,0)" d="M2149.7384 2142.623H2313.1658V2201.442H2149.7384Z"/>
</clipPath>
<clipPath id="clip_116">
<path transform="matrix(.24,0,0,.24,0,0)" d="M2309.3228 2169.8892C2292.4764 2144.8604 2286.2193 2147.7484 2277.5555 2149.1925 2262.6346 2152.0804 2236.643 2159.7813 2216.4278 2167.9639 2194.2869 2176.6278 2150.4866 2201.6563 2150.0054 2201.175 2150.0054 2200.6937 2193.3243 2173.7398 2214.9837 2164.5946 2235.1993 2155.4495 2261.1905 2148.2298 2277.0743 2145.3419 2286.7005 2143.8978 2294.4017 2141.0098 2300.1776 2144.3792 2306.4349 2148.2298 2314.1358 2165.076 2312.692 2167.9639 2312.2108 2169.4078 2309.3228 2169.8892 2309.3228 2169.8892"/>
</clipPath>
<clipPath id="clip_117">
<path transform="matrix(.24,0,0,.24,516,514.08)" d="M0 0H164V60H0Z"/>
</clipPath>
</defs>
<g>
<g clip-path="url(#clip_1)">
<path transform="matrix(.75,0,0,.75,0,0)" d="M0 0H1080V1350H0Z" fill="#ffffff"/>
</g>
<g clip-path="url(#clip_2)">
<path transform="matrix(.75,0,0,.75,0,0)" d="M0 0H1080V1350H0Z" fill="#ffeded"/>
</g>
<g clip-path="url(#clip_3)">
<g clip-path="url(#clip_4)">
<g clip-path="url(#clip_5)">
<g clip-path="url(#clip_6)">
<g>
<g clip-path="url(#clip_7)">
<path transform="matrix(1.1531965,0,0,1.1531965,43.43478,188.84429)" d="M0 0H599V468H0Z" fill="#810000"/>
</g>
</g>
</g>
</g>
</g>
</g>
<g clip-path="url(#clip_8)">
<g>
<g clip-path="url(#clip_9)">
<use data-text="&#x03b5;" xlink:href="#font_10_176" transform="matrix(61.209039,7.5357596,7.5357596,-61.209039,349.21257,631.18447)" fill="#810000"/>
</g>
</g>
</g>
<g clip-path="url(#clip_11)">
<g clip-path="url(#clip_12)">
<g clip-path="url(#clip_13)">
<g clip-path="url(#clip_14)">
<g>
<g clip-path="url(#clip_15)">
<path transform="matrix(.33555476,.025201519,-.025201519,.33555476,274.40779,558.67507)" d="M0 0H256V331H0Z" fill="#810000"/>
</g>
</g>
</g>
</g>
</g>
</g>
<g clip-path="url(#clip_16)">
<g clip-path="url(#clip_17)">
<g clip-path="url(#clip_18)">
<g clip-path="url(#clip_19)">
<g>
<g clip-path="url(#clip_20)">
<path transform="matrix(.052960714,.057655123,-.057655123,.052960714,464.19099,558.10317)" d="M0 0H256V432H0Z" fill="#810000"/>
</g>
</g>
</g>
</g>
</g>
</g>
<g clip-path="url(#clip_21)">
<g clip-path="url(#clip_22)">
<g clip-path="url(#clip_23)">
<g clip-path="url(#clip_24)">
<g>
<g clip-path="url(#clip_25)">
<path transform="matrix(.11010994,.08406213,-.08406213,.11010994,462.83058,546.0905)" d="M0 0H256V938H0Z" fill="#810000"/>
</g>
</g>
</g>
</g>
</g>
</g>
<g clip-path="url(#clip_26)">
<g>
<g clip-path="url(#clip_27)">
<use data-text="&#x03c1;" xlink:href="#font_10_188" transform="matrix(53.03782,31.385466,31.385466,-53.03782,463.72727,655.7934)" fill="#810000"/>
<use data-text="&#x03cc;" xlink:href="#font_10_199" transform="matrix(55.382169,27.034663,27.034663,-55.382169,491.89137,672.1028)" fill="#810000"/>
<use data-text="&#x03b8;" xlink:href="#font_10_179" transform="matrix(57.559614,22.021553,22.021553,-57.559614,521.03646,686.12429)" fill="#810000"/>
<use data-text="&#x03b5;" xlink:href="#font_10_176" transform="matrix(59.298997,16.783499,16.783499,-59.298997,557.86557,699.6986)" fill="#810000"/>
<use data-text="&#x03c3;" xlink:href="#font_10_190" transform="matrix(60.578065,11.32943,11.32943,-60.578065,589.7284,708.5266)" fill="#810000"/>
<use data-text="&#x03b7;" xlink:href="#font_10_178" transform="matrix(61.40688,5.220376,5.220376,-61.40688,629.6103,715.57949)" fill="#810000"/>
</g>
</g>
</g>
<g clip-path="url(#clip_28)">
<g clip-path="url(#clip_29)">
<g clip-path="url(#clip_30)">
<g clip-path="url(#clip_31)">
<g>
<g clip-path="url(#clip_32)">
<path transform="matrix(.2968518,.08932871,-.08932871,.2968518,425.47523,570.7636)" d="M0 0H256V307H0Z" fill="#810000"/>
</g>
</g>
</g>
</g>
</g>
</g>
<g clip-path="url(#clip_33)">
<g clip-path="url(#clip_34)">
<g clip-path="url(#clip_35)">
<g clip-path="url(#clip_36)">
<g>
<g clip-path="url(#clip_37)">
<path transform="matrix(.047831309,0,0,.047831309,495.43928,435.1752)" d="M0 0H261V256H0Z" fill="#ffecdb"/>
</g>
</g>
</g>
</g>
</g>
</g>
<g clip-path="url(#clip_38)">
<g clip-path="url(#clip_39)">
<g clip-path="url(#clip_40)">
<g clip-path="url(#clip_41)">
<g>
<g clip-path="url(#clip_42)">
<path transform="matrix(.057307319,0,0,.057307319,523.3944,409.7614)" d="M0 0H256V286H0Z" fill="#ffecdb"/>
</g>
</g>
</g>
</g>
</g>
</g>
<g clip-path="url(#clip_43)">
<g clip-path="url(#clip_44)">
<g clip-path="url(#clip_45)">
<g clip-path="url(#clip_46)">
<g>
<g clip-path="url(#clip_47)">
<path transform="matrix(.062722187,0,0,.062722187,528.4772,410.4545)" d="M0 0H263V256H0Z" fill="#ffecdb"/>
</g>
</g>
</g>
</g>
</g>
</g>
<g clip-path="url(#clip_48)">
<g clip-path="url(#clip_49)">
<g clip-path="url(#clip_50)">
<g clip-path="url(#clip_51)">
<g>
<g clip-path="url(#clip_52)">
<path transform="matrix(.060465997,0,0,.060465997,529.1703,410.8011)" d="M0 0H267V256H0Z" fill="#ffecdb"/>
</g>
</g>
</g>
</g>
</g>
</g>
<g clip-path="url(#clip_53)">
<g clip-path="url(#clip_54)">
<g clip-path="url(#clip_55)">
<g clip-path="url(#clip_56)">
<g>
<g clip-path="url(#clip_57)">
<path transform="matrix(.050538739,0,0,.050538739,531.4806,410.57008)" d="M0 0H265V256H0Z" fill="#ffecdb"/>
</g>
</g>
</g>
</g>
</g>
</g>
<g clip-path="url(#clip_58)">
<g clip-path="url(#clip_59)">
<g clip-path="url(#clip_60)">
<g clip-path="url(#clip_61)">
<g>
<g clip-path="url(#clip_62)">
<path transform="matrix(.0695679,.020934385,-.020934385,.0695679,451.1384,578.48617)" d="M0 0H256V304H0Z" fill="#ffecdb"/>
</g>
</g>
</g>
</g>
</g>
</g>
<g clip-path="url(#clip_63)">
<g clip-path="url(#clip_64)">
<g clip-path="url(#clip_65)">
<g clip-path="url(#clip_66)">
<g>
<g clip-path="url(#clip_67)">
<path transform="matrix(.08212545,0,0,.08212545,523.8565,399.71147)" d="M0 0H263V256H0Z" fill="#ffecdb"/>
</g>
</g>
</g>
</g>
</g>
</g>
<g clip-path="url(#clip_68)">
<g clip-path="url(#clip_69)">
<g clip-path="url(#clip_70)">
<g clip-path="url(#clip_71)">
<g>
<g clip-path="url(#clip_72)">
<path transform="matrix(.045123877,0,0,.045123877,525.35818,409.7614)" d="M0 0H317V256H0Z" fill="#ffecdb"/>
</g>
</g>
</g>
</g>
</g>
</g>
<g clip-path="url(#clip_73)">
<g clip-path="url(#clip_74)">
<g clip-path="url(#clip_75)">
<g clip-path="url(#clip_76)">
<g>
<g clip-path="url(#clip_77)">
<path transform="matrix(.043770158,0,0,.043770158,524.7806,409.5304)" d="M0 0H327V256H0Z" fill="#ffecdb"/>
</g>
</g>
</g>
</g>
</g>
</g>
<g clip-path="url(#clip_78)">
<g clip-path="url(#clip_79)">
<g clip-path="url(#clip_80)">
<g clip-path="url(#clip_81)">
<g>
<g clip-path="url(#clip_82)">
<path transform="matrix(.044221395,0,0,.044221395,525.12716,408.8373)" d="M0 0H298V256H0Z" fill="#ffecdb"/>
</g>
</g>
</g>
</g>
</g>
</g>
<g clip-path="url(#clip_83)">
<g clip-path="url(#clip_84)">
<g clip-path="url(#clip_85)">
<g clip-path="url(#clip_86)">
<g>
<g clip-path="url(#clip_87)">
<path transform="matrix(.044221395,0,0,.044221395,525.82028,409.4149)" d="M0 0H313V256H0Z" fill="#ffecdb"/>
</g>
</g>
</g>
</g>
</g>
</g>
<g clip-path="url(#clip_88)">
<g clip-path="url(#clip_89)">
<g clip-path="url(#clip_90)">
<g clip-path="url(#clip_91)">
<g>
<g clip-path="url(#clip_92)">
<path transform="matrix(.06136847,0,0,.06136847,522.9323,399.4804)" d="M0 0H256V429H0Z" fill="#ffecdb"/>
</g>
</g>
</g>
</g>
</g>
</g>
<g clip-path="url(#clip_93)">
<g clip-path="url(#clip_94)">
<g clip-path="url(#clip_95)">
<g clip-path="url(#clip_96)">
<g>
<g clip-path="url(#clip_97)">
<path transform="matrix(.048282546,0,0,.048282546,495.67033,491.6631)" d="M0 0H256V345H0Z" fill="#ffecdb"/>
</g>
</g>
</g>
</g>
</g>
</g>
<g clip-path="url(#clip_98)">
<g clip-path="url(#clip_99)">
<g clip-path="url(#clip_100)">
<g clip-path="url(#clip_101)">
<g>
<g clip-path="url(#clip_102)">
<path transform="matrix(.041062725,0,0,.041062725,497.7496,484.26997)" d="M0 0H256V312H0Z" fill="#ffecdb"/>
</g>
</g>
</g>
</g>
</g>
</g>
<g clip-path="url(#clip_103)">
<g clip-path="url(#clip_104)">
<g clip-path="url(#clip_105)">
<g clip-path="url(#clip_106)">
<g>
<g clip-path="url(#clip_107)">
<path transform="matrix(.07950616,.02392501,-.02392501,.07950616,399.04777,642.5502)" d="M0 0H360V256H0Z" fill="#ffecdb"/>
</g>
</g>
</g>
</g>
</g>
</g>
<g clip-path="url(#clip_108)">
<g clip-path="url(#clip_109)">
<g clip-path="url(#clip_110)">
<g clip-path="url(#clip_111)">
<g>
<g clip-path="url(#clip_112)">
<path transform="matrix(.050087498,0,0,.050087498,519.4668,519.3872)" d="M0 0H763V256H0Z" fill="#ffecdb"/>
</g>
</g>
</g>
</g>
</g>
</g>
<g clip-path="url(#clip_113)">
<g clip-path="url(#clip_114)">
<g clip-path="url(#clip_115)">
<g clip-path="url(#clip_116)">
<g>
<g clip-path="url(#clip_117)">
<path transform="matrix(.08934527,0,0,.08934527,511.38059,510.0303)" d="M0 0H542V256H0Z" fill="#ffecdb"/>
</g>
</g>
</g>
</g>
</g>
</g>
<path transform="matrix(1,0,0,-1,0,1020)" d="M43.434785 291.45979H734.4581V831.15579H43.434785Z" fill-opacity="0"/>
<path transform="matrix(1,0,0,-1,0,1020)" d="M266.06285 343.7576H360.31013V461.32539H266.06285Z" fill-opacity="0"/>
<path transform="matrix(1,0,0,-1,0,1020)" d="M495.43928 572.58H507.91514V584.8248H495.43928Z" fill-opacity="0"/>
<path transform="matrix(1,0,0,-1,0,1020)" d="M522.9323 594.1817H538.64266V620.5196H522.9323Z" fill-opacity="0"/>
<path transform="matrix(1,0,0,-1,0,1020)" d="M523.8565 599.26449H545.4582V620.2886H523.8565Z" fill-opacity="0"/>
<path transform="matrix(1,0,0,-1,0,1020)" d="M525.12716 599.84207H538.2961V611.1627H525.12716Z" fill-opacity="0"/>
<path transform="matrix(1,0,0,-1,0,1020)" d="M525.82028 599.26449H539.6823V610.58517H525.82028Z" fill-opacity="0"/>
<path transform="matrix(1,0,0,-1,0,1020)" d="M524.78067 599.26449H539.10476V610.4696H524.78067Z" fill-opacity="0"/>
<path transform="matrix(1,0,0,-1,0,1020)" d="M523.3944 593.83517H538.06509V610.2386H523.3944Z" fill-opacity="0"/>
<path transform="matrix(1,0,0,-1,0,1020)" d="M525.3582 598.6869H539.6823V610.2386H525.3582Z" fill-opacity="0"/>
<path transform="matrix(1,0,0,-1,0,1020)" d="M528.4772 593.4886H544.9961V609.5455H528.4772Z" fill-opacity="0"/>
<path transform="matrix(1,0,0,-1,0,1020)" d="M531.4806 596.49209H544.88058V609.43H531.4806Z" fill-opacity="0"/>
<path transform="matrix(1,0,0,-1,0,1020)" d="M529.1703 593.71969H545.3427V609.199H529.1703Z" fill-opacity="0"/>
<path transform="matrix(1,0,0,-1,0,1020)" d="M497.7496 522.90768H508.26167V535.73007H497.7496Z" fill-opacity="0"/>
<path transform="matrix(1,0,0,-1,0,1020)" d="M495.6703 511.70249H508.0306V528.337H495.6703Z" fill-opacity="0"/>
<path transform="matrix(1,0,0,-1,0,1020)" d="M511.3806 487.09736H559.7823V509.96974H511.3806Z" fill-opacity="0"/>
<path transform="matrix(1,0,0,-1,0,1020)" d="M519.4668 487.79048H557.70297V500.61286H519.4668Z" fill-opacity="0"/>
<path transform="matrix(1,0,0,-1,0,1020)" d="M439.29103 424.26246H477.75135V461.8969H439.29103Z" fill-opacity="0"/>
<path transform="matrix(1,0,0,-1,0,1020)" d="M383.94493 349.05656H491.02149V473.90956H383.94493Z" fill-opacity="0"/>
<path transform="matrix(1,0,0,-1,0,1020)" d="M398.02378 335.1389H501.47059V449.23634H398.02378Z" fill-opacity="0"/>
<path transform="matrix(1,0,0,-1,0,1020)" d="M444.7819 415.02665H468.9491V441.51374H444.7819Z" fill-opacity="0"/>
<path transform="matrix(1,0,0,-1,0,1020)" d="M392.92433 348.47489H427.699V377.4498H392.92433Z" fill-opacity="0"/>
</g>
</svg>
